<svg width="100" height="61" viewBox="0 0 100 61" fill="none" xmlns="http://www.w3.org/2000/svg">
<rect width="100" height="61" fill="white"/>
<rect x="30" y="11" width="39" height="39" rx="5" fill="#143937"/>
<rect x="38" y="30" width="22.0263" height="2" fill="white"/>
<rect x="38" y="36" width="22.0263" height="2" fill="white"/>
<rect x="38" y="33" width="22.0263" height="2" fill="white"/>
<rect x="38" y="39" width="22.0263" height="2" fill="white"/>
<path d="M40.0398 23H39.5114C39.4801 22.848 39.4254 22.7145 39.3473 22.5994C39.2706 22.4844 39.1768 22.3878 39.0661 22.3097C38.9567 22.2301 38.8352 22.1705 38.7017 22.1307C38.5682 22.0909 38.429 22.071 38.2841 22.071C38.0199 22.071 37.7805 22.1378 37.5661 22.2713C37.353 22.4048 37.1832 22.6016 37.0568 22.8615C36.9318 23.1214 36.8693 23.4403 36.8693 23.8182C36.8693 24.196 36.9318 24.5149 37.0568 24.7749C37.1832 25.0348 37.353 25.2315 37.5661 25.3651C37.7805 25.4986 38.0199 25.5653 38.2841 25.5653C38.429 25.5653 38.5682 25.5455 38.7017 25.5057C38.8352 25.4659 38.9567 25.407 39.0661 25.3288C39.1768 25.2493 39.2706 25.152 39.3473 25.0369C39.4254 24.9205 39.4801 24.7869 39.5114 24.6364H40.0398C40 24.8594 39.9276 25.0589 39.8224 25.2351C39.7173 25.4112 39.5866 25.5611 39.4304 25.6847C39.2741 25.8068 39.0987 25.8999 38.9041 25.9638C38.7109 26.0277 38.5043 26.0597 38.2841 26.0597C37.9119 26.0597 37.581 25.9688 37.2912 25.7869C37.0014 25.6051 36.7734 25.3466 36.6072 25.0114C36.4411 24.6761 36.358 24.2784 36.358 23.8182C36.358 23.358 36.4411 22.9602 36.6072 22.625C36.7734 22.2898 37.0014 22.0312 37.2912 21.8494C37.581 21.6676 37.9119 21.5767 38.2841 21.5767C38.5043 21.5767 38.7109 21.6087 38.9041 21.6726C39.0987 21.7365 39.2741 21.8303 39.4304 21.9538C39.5866 22.076 39.7173 22.2251 39.8224 22.4013C39.9276 22.576 40 22.7756 40.0398 23ZM41.7885 26.0767C41.5811 26.0767 41.3929 26.0376 41.2239 25.9595C41.0549 25.88 40.9206 25.7656 40.8212 25.6165C40.7218 25.4659 40.6721 25.2841 40.6721 25.071C40.6721 24.8835 40.709 24.7315 40.7828 24.6151C40.8567 24.4972 40.9554 24.4048 41.079 24.3381C41.2026 24.2713 41.339 24.2216 41.4881 24.1889C41.6387 24.1548 41.79 24.1278 41.9419 24.108C42.1408 24.0824 42.302 24.0632 42.4256 24.0504C42.5506 24.0362 42.6415 24.0128 42.6983 23.9801C42.7566 23.9474 42.7857 23.8906 42.7857 23.8097V23.7926C42.7857 23.5824 42.7282 23.419 42.6131 23.3026C42.4995 23.1861 42.3269 23.1278 42.0953 23.1278C41.8553 23.1278 41.6671 23.1804 41.5307 23.2855C41.3944 23.3906 41.2985 23.5028 41.2431 23.6222L40.7658 23.4517C40.851 23.2528 40.9647 23.098 41.1067 22.9872C41.2502 22.875 41.4064 22.7969 41.5755 22.7528C41.7459 22.7074 41.9135 22.6847 42.0783 22.6847C42.1834 22.6847 42.3042 22.6974 42.4405 22.723C42.5783 22.7472 42.7111 22.7976 42.839 22.8743C42.9682 22.951 43.0755 23.0668 43.1607 23.2216C43.2459 23.3764 43.2885 23.5838 43.2885 23.8438V26H42.7857V25.5568H42.7601C42.726 25.6278 42.6692 25.7038 42.5897 25.7848C42.5101 25.8658 42.4043 25.9347 42.2722 25.9915C42.1401 26.0483 41.9789 26.0767 41.7885 26.0767ZM41.8652 25.625C42.0641 25.625 42.2317 25.5859 42.3681 25.5078C42.5059 25.4297 42.6096 25.3288 42.6792 25.2053C42.7502 25.0817 42.7857 24.9517 42.7857 24.8153V24.3551C42.7644 24.3807 42.7175 24.4041 42.6451 24.4254C42.574 24.4453 42.4917 24.4631 42.3979 24.4787C42.3056 24.4929 42.2154 24.5057 42.1273 24.517C42.0407 24.527 41.9703 24.5355 41.9164 24.5426C41.7857 24.5597 41.6635 24.5874 41.5499 24.6257C41.4377 24.6626 41.3468 24.7187 41.2772 24.794C41.209 24.8679 41.1749 24.9687 41.1749 25.0966C41.1749 25.2713 41.2395 25.4034 41.3688 25.4929C41.4995 25.581 41.665 25.625 41.8652 25.625ZM45.4421 26.0682C45.1694 26.0682 44.9286 25.9993 44.7198 25.8615C44.511 25.7223 44.3477 25.5263 44.2298 25.2734C44.1119 25.0192 44.0529 24.7188 44.0529 24.3722C44.0529 24.0284 44.1119 23.7301 44.2298 23.4773C44.3477 23.2244 44.5117 23.0291 44.7219 22.8913C44.9322 22.7536 45.1751 22.6847 45.4506 22.6847C45.6637 22.6847 45.832 22.7202 45.9556 22.7912C46.0806 22.8608 46.1758 22.9403 46.2411 23.0298C46.3079 23.1179 46.3597 23.1903 46.3967 23.2472H46.4393V21.6364H46.9421V26H46.4563V25.4972H46.3967C46.3597 25.5568 46.3072 25.6321 46.239 25.723C46.1708 25.8125 46.0735 25.8928 45.9471 25.9638C45.8207 26.0334 45.6523 26.0682 45.4421 26.0682ZM45.5103 25.6165C45.712 25.6165 45.8825 25.5639 46.0217 25.4588C46.1609 25.3523 46.2667 25.2053 46.3391 25.0178C46.4116 24.8288 46.4478 24.6108 46.4478 24.3636C46.4478 24.1193 46.4123 23.9055 46.3413 23.7223C46.2702 23.5376 46.1651 23.3942 46.0259 23.2919C45.8867 23.1882 45.7148 23.1364 45.5103 23.1364C45.2972 23.1364 45.1197 23.1911 44.9776 23.3004C44.837 23.4084 44.7312 23.5554 44.6602 23.7415C44.5906 23.9261 44.5558 24.1335 44.5558 24.3636C44.5558 24.5966 44.5913 24.8082 44.6623 24.9986C44.7347 25.1875 44.8413 25.3381 44.9819 25.4503C45.1239 25.5611 45.3001 25.6165 45.5103 25.6165ZM48.896 26.0767C48.6886 26.0767 48.5004 26.0376 48.3313 25.9595C48.1623 25.88 48.0281 25.7656 47.9286 25.6165C47.8292 25.4659 47.7795 25.2841 47.7795 25.071C47.7795 24.8835 47.8164 24.7315 47.8903 24.6151C47.9641 24.4972 48.0629 24.4048 48.1864 24.3381C48.31 24.2713 48.4464 24.2216 48.5955 24.1889C48.7461 24.1548 48.8974 24.1278 49.0494 24.108C49.2482 24.0824 49.4094 24.0632 49.533 24.0504C49.658 24.0362 49.7489 24.0128 49.8058 23.9801C49.864 23.9474 49.8931 23.8906 49.8931 23.8097V23.7926C49.8931 23.5824 49.8356 23.419 49.7205 23.3026C49.6069 23.1861 49.4343 23.1278 49.2028 23.1278C48.9627 23.1278 48.7745 23.1804 48.6381 23.2855C48.5018 23.3906 48.4059 23.5028 48.3505 23.6222L47.8732 23.4517C47.9585 23.2528 48.0721 23.098 48.2141 22.9872C48.3576 22.875 48.5138 22.7969 48.6829 22.7528C48.8533 22.7074 49.021 22.6847 49.1857 22.6847C49.2908 22.6847 49.4116 22.6974 49.5479 22.723C49.6857 22.7472 49.8185 22.7976 49.9464 22.8743C50.0756 22.951 50.1829 23.0668 50.2681 23.2216C50.3533 23.3764 50.396 23.5838 50.396 23.8438V26H49.8931V25.5568H49.8675C49.8335 25.6278 49.7766 25.7038 49.6971 25.7848C49.6175 25.8658 49.5117 25.9347 49.3796 25.9915C49.2475 26.0483 49.0863 26.0767 48.896 26.0767ZM48.9727 25.625C49.1715 25.625 49.3391 25.5859 49.4755 25.5078C49.6133 25.4297 49.717 25.3288 49.7866 25.2053C49.8576 25.0817 49.8931 24.9517 49.8931 24.8153V24.3551C49.8718 24.3807 49.8249 24.4041 49.7525 24.4254C49.6815 24.4453 49.5991 24.4631 49.5053 24.4787C49.413 24.4929 49.3228 24.5057 49.2347 24.517C49.1481 24.527 49.0778 24.5355 49.0238 24.5426C48.8931 24.5597 48.771 24.5874 48.6573 24.6257C48.5451 24.6626 48.4542 24.7187 48.3846 24.794C48.3164 24.8679 48.2823 24.9687 48.2823 25.0966C48.2823 25.2713 48.3469 25.4034 48.4762 25.4929C48.6069 25.581 48.7724 25.625 48.9727 25.625ZM53.6319 23.4602L53.1802 23.5881C53.1518 23.5128 53.1099 23.4396 53.0545 23.3686C53.0005 23.2962 52.9267 23.2365 52.8329 23.1896C52.7392 23.1428 52.6191 23.1193 52.4728 23.1193C52.2725 23.1193 52.1056 23.1655 51.9721 23.2578C51.84 23.3487 51.774 23.4645 51.774 23.6051C51.774 23.7301 51.8194 23.8288 51.9103 23.9013C52.0012 23.9737 52.1433 24.0341 52.3365 24.0824L52.8223 24.2017C53.1149 24.2727 53.3329 24.3814 53.4764 24.5277C53.6199 24.6726 53.6916 24.8594 53.6916 25.0881C53.6916 25.2756 53.6376 25.4432 53.5297 25.5909C53.4231 25.7386 53.274 25.8551 53.0822 25.9403C52.8904 26.0256 52.6674 26.0682 52.4132 26.0682C52.0794 26.0682 51.8031 25.9957 51.5843 25.8509C51.3656 25.706 51.2271 25.4943 51.1689 25.2159L51.6461 25.0966C51.6916 25.2727 51.7775 25.4048 51.9039 25.4929C52.0318 25.581 52.1987 25.625 52.4047 25.625C52.639 25.625 52.8251 25.5753 52.9629 25.4759C53.1021 25.375 53.1717 25.2543 53.1717 25.1136C53.1717 25 53.1319 24.9048 53.0524 24.8281C52.9728 24.75 52.8507 24.6918 52.6859 24.6534L52.1404 24.5256C51.8407 24.4545 51.6206 24.3445 51.4799 24.1953C51.3407 24.0447 51.2711 23.8565 51.2711 23.6307C51.2711 23.446 51.323 23.2827 51.4267 23.1406C51.5318 22.9986 51.6745 22.8871 51.8549 22.8061C52.0368 22.7251 52.2427 22.6847 52.4728 22.6847C52.7967 22.6847 53.051 22.7557 53.2356 22.8977C53.4217 23.0398 53.5538 23.2273 53.6319 23.4602ZM55.8718 22.7273V23.1534H54.1758V22.7273H55.8718ZM54.6701 21.9432H55.1729V25.0625C55.1729 25.2045 55.1935 25.3111 55.2347 25.3821C55.2773 25.4517 55.3313 25.4986 55.3967 25.5227C55.4634 25.5455 55.5337 25.5568 55.6076 25.5568C55.663 25.5568 55.7085 25.554 55.744 25.5483C55.7795 25.5412 55.8079 25.5355 55.8292 25.5312L55.9315 25.983C55.8974 25.9957 55.8498 26.0085 55.7887 26.0213C55.7276 26.0355 55.6502 26.0426 55.5565 26.0426C55.4144 26.0426 55.2752 26.0121 55.1388 25.951C55.0039 25.8899 54.8917 25.7969 54.8022 25.6719C54.7141 25.5469 54.6701 25.3892 54.6701 25.1989V21.9432ZM56.6282 26V22.7273H57.114V23.2216H57.1481C57.2077 23.0597 57.3157 22.9283 57.4719 22.8274C57.6282 22.7266 57.8043 22.6761 58.0004 22.6761C58.0373 22.6761 58.0835 22.6768 58.1388 22.6783C58.1942 22.6797 58.2362 22.6818 58.2646 22.6847V23.196C58.2475 23.1918 58.2085 23.1854 58.1474 23.1768C58.0877 23.1669 58.0245 23.1619 57.9577 23.1619C57.7987 23.1619 57.6566 23.1953 57.5316 23.2621C57.408 23.3274 57.31 23.4183 57.2376 23.5348C57.1665 23.6499 57.131 23.7812 57.131 23.929V26H56.6282ZM60.0906 26.0682C59.7951 26.0682 59.5359 25.9979 59.3129 25.8572C59.0913 25.7166 58.918 25.5199 58.793 25.267C58.6694 25.0142 58.6076 24.7187 58.6076 24.3807C58.6076 24.0398 58.6694 23.7422 58.793 23.4879C58.918 23.2337 59.0913 23.0362 59.3129 22.8956C59.5359 22.755 59.7951 22.6847 60.0906 22.6847C60.386 22.6847 60.6445 22.755 60.8661 22.8956C61.0891 23.0362 61.2624 23.2337 61.386 23.4879C61.511 23.7422 61.5735 24.0398 61.5735 24.3807C61.5735 24.7187 61.511 25.0142 61.386 25.267C61.2624 25.5199 61.0891 25.7166 60.8661 25.8572C60.6445 25.9979 60.386 26.0682 60.0906 26.0682ZM60.0906 25.6165C60.315 25.6165 60.4996 25.5589 60.6445 25.4439C60.7894 25.3288 60.8967 25.1776 60.9663 24.9901C61.0359 24.8026 61.0707 24.5994 61.0707 24.3807C61.0707 24.1619 61.0359 23.9581 60.9663 23.7692C60.8967 23.5803 60.7894 23.4276 60.6445 23.3111C60.4996 23.1946 60.315 23.1364 60.0906 23.1364C59.8661 23.1364 59.6815 23.1946 59.5366 23.3111C59.3917 23.4276 59.2844 23.5803 59.2148 23.7692C59.1452 23.9581 59.1104 24.1619 59.1104 24.3807C59.1104 24.5994 59.1452 24.8026 59.2148 24.9901C59.2844 25.1776 59.3917 25.3288 59.5366 25.4439C59.6815 25.5589 59.8661 25.6165 60.0906 25.6165Z" fill="white"/>
</svg>
