<svg width="100" height="61" viewBox="0 0 100 61" fill="none" xmlns="http://www.w3.org/2000/svg">
<rect width="100" height="61" fill="white"/>
<rect x="30" y="11" width="39" height="39" rx="5" fill="#143937"/>
<rect x="38" y="30" width="22.0263" height="2" fill="white"/>
<rect x="38" y="36" width="22.0263" height="2" fill="white"/>
<rect x="38" y="33" width="22.0263" height="2" fill="white"/>
<rect x="38" y="39" width="22.0263" height="2" fill="white"/>
<path d="M41.5284 26V21.6364H42.0568V25.5312H44.0852V26H41.5284ZM46.1648 26.0682C45.8693 26.0682 45.6101 25.9979 45.3871 25.8572C45.1655 25.7166 44.9922 25.5199 44.8672 25.267C44.7436 25.0142 44.6818 24.7187 44.6818 24.3807C44.6818 24.0398 44.7436 23.7422 44.8672 23.4879C44.9922 23.2337 45.1655 23.0362 45.3871 22.8956C45.6101 22.755 45.8693 22.6847 46.1648 22.6847C46.4602 22.6847 46.7188 22.755 46.9403 22.8956C47.1634 23.0362 47.3366 23.2337 47.4602 23.4879C47.5852 23.7422 47.6477 24.0398 47.6477 24.3807C47.6477 24.7187 47.5852 25.0142 47.4602 25.267C47.3366 25.5199 47.1634 25.7166 46.9403 25.8572C46.7188 25.9979 46.4602 26.0682 46.1648 26.0682ZM46.1648 25.6165C46.3892 25.6165 46.5739 25.5589 46.7188 25.4439C46.8636 25.3288 46.9709 25.1776 47.0405 24.9901C47.1101 24.8026 47.1449 24.5994 47.1449 24.3807C47.1449 24.1619 47.1101 23.9581 47.0405 23.7692C46.9709 23.5803 46.8636 23.4276 46.7188 23.3111C46.5739 23.1946 46.3892 23.1364 46.1648 23.1364C45.9403 23.1364 45.7557 23.1946 45.6108 23.3111C45.4659 23.4276 45.3587 23.5803 45.2891 23.7692C45.2195 23.9581 45.1847 24.1619 45.1847 24.3807C45.1847 24.5994 45.2195 24.8026 45.2891 24.9901C45.3587 25.1776 45.4659 25.3288 45.6108 25.4439C45.7557 25.5589 45.9403 25.6165 46.1648 25.6165ZM49.7363 27.2955C49.4934 27.2955 49.2846 27.2642 49.1099 27.2017C48.9352 27.1406 48.7896 27.0597 48.6731 26.9588C48.5581 26.8594 48.4664 26.7528 48.3983 26.6392L48.7988 26.358C48.8443 26.4176 48.9018 26.4858 48.9714 26.5625C49.041 26.6406 49.1362 26.7081 49.2569 26.7649C49.3791 26.8232 49.5389 26.8523 49.7363 26.8523C50.0005 26.8523 50.2186 26.7884 50.3904 26.6605C50.5623 26.5327 50.6483 26.3324 50.6483 26.0597V25.3949H50.6056C50.5687 25.4545 50.5162 25.5284 50.448 25.6165C50.3812 25.7031 50.2846 25.7805 50.1582 25.8487C50.0332 25.9155 49.8642 25.9489 49.6511 25.9489C49.3869 25.9489 49.1497 25.8864 48.9395 25.7614C48.7306 25.6364 48.5652 25.4545 48.443 25.2159C48.3223 24.9773 48.2619 24.6875 48.2619 24.3466C48.2619 24.0114 48.3208 23.7195 48.4387 23.4709C48.5566 23.2209 48.7207 23.0277 48.9309 22.8913C49.1412 22.7536 49.3841 22.6847 49.6596 22.6847C49.8727 22.6847 50.0417 22.7202 50.1667 22.7912C50.2931 22.8608 50.3897 22.9403 50.4565 23.0298C50.5247 23.1179 50.5772 23.1903 50.6142 23.2472H50.6653V22.7273H51.1511V26.0938C51.1511 26.375 51.0872 26.6037 50.9593 26.7798C50.8329 26.9574 50.6625 27.0874 50.448 27.1697C50.2349 27.2536 49.9977 27.2955 49.7363 27.2955ZM49.7193 25.4972C49.921 25.4972 50.0914 25.451 50.2306 25.3587C50.3699 25.2663 50.4757 25.1335 50.5481 24.9602C50.6206 24.7869 50.6568 24.5795 50.6568 24.3381C50.6568 24.1023 50.6213 23.8942 50.5502 23.7138C50.4792 23.5334 50.3741 23.392 50.2349 23.2898C50.0957 23.1875 49.9238 23.1364 49.7193 23.1364C49.5062 23.1364 49.3287 23.1903 49.1866 23.2983C49.046 23.4062 48.9402 23.5511 48.8691 23.733C48.7995 23.9148 48.7647 24.1165 48.7647 24.3381C48.7647 24.5653 48.8002 24.7663 48.8713 24.9411C48.9437 25.1143 49.0502 25.2507 49.1909 25.3501C49.3329 25.4482 49.5091 25.4972 49.7193 25.4972ZM52.0716 26V22.7273H52.5744V26H52.0716ZM52.3272 22.1818C52.2292 22.1818 52.1447 22.1484 52.0737 22.0817C52.0041 22.0149 51.9693 21.9347 51.9693 21.8409C51.9693 21.7472 52.0041 21.6669 52.0737 21.6001C52.1447 21.5334 52.2292 21.5 52.3272 21.5C52.4252 21.5 52.5091 21.5334 52.5787 21.6001C52.6497 21.6669 52.6852 21.7472 52.6852 21.8409C52.6852 21.9347 52.6497 22.0149 52.5787 22.0817C52.5091 22.1484 52.4252 22.1818 52.3272 22.1818ZM53.9982 24.0312V26H53.4954V22.7273H53.9812V23.2386H54.0238C54.1005 23.0724 54.217 22.9389 54.3732 22.8381C54.5295 22.7358 54.7312 22.6847 54.9783 22.6847C55.1999 22.6847 55.3938 22.7301 55.56 22.821C55.7262 22.9105 55.8555 23.0469 55.9478 23.2301C56.0401 23.4119 56.0863 23.642 56.0863 23.9205V26H55.5835V23.9545C55.5835 23.6974 55.5167 23.4972 55.3832 23.3537C55.2496 23.2088 55.0664 23.1364 54.8335 23.1364C54.6729 23.1364 54.5295 23.1712 54.4031 23.2408C54.2781 23.3104 54.1793 23.4119 54.1069 23.5455C54.0344 23.679 53.9982 23.8409 53.9982 24.0312Z" fill="white"/>
</svg>
