<svg width="100" height="61" viewBox="0 0 100 61" fill="none" xmlns="http://www.w3.org/2000/svg">
<rect width="100" height="61" fill="white"/>
<rect x="55" y="21" width="38" height="5" fill="#143937"/>
<rect x="55" y="29" width="27" height="2" fill="#143937"/>
<rect x="55" y="35" width="27" height="2" fill="#143937"/>
<rect x="55" y="32" width="27" height="2" fill="#143937"/>
<rect x="55" y="38" width="27" height="2" fill="#143937"/>
<rect x="6" y="11" width="39" height="39" rx="5" fill="#143937"/>
<rect x="14" y="28" width="22.0263" height="2" fill="white"/>
<rect x="14" y="34" width="22.0263" height="2" fill="white"/>
<rect x="14" y="31" width="22.0263" height="2" fill="white"/>
<rect x="14" y="37" width="22.0263" height="2" fill="white"/>
<path d="M17.5284 24V19.6364H18.0568V23.5312H20.0852V24H17.5284ZM22.1648 24.0682C21.8693 24.0682 21.6101 23.9979 21.3871 23.8572C21.1655 23.7166 20.9922 23.5199 20.8672 23.267C20.7436 23.0142 20.6818 22.7187 20.6818 22.3807C20.6818 22.0398 20.7436 21.7422 20.8672 21.4879C20.9922 21.2337 21.1655 21.0362 21.3871 20.8956C21.6101 20.755 21.8693 20.6847 22.1648 20.6847C22.4602 20.6847 22.7188 20.755 22.9403 20.8956C23.1634 21.0362 23.3366 21.2337 23.4602 21.4879C23.5852 21.7422 23.6477 22.0398 23.6477 22.3807C23.6477 22.7187 23.5852 23.0142 23.4602 23.267C23.3366 23.5199 23.1634 23.7166 22.9403 23.8572C22.7188 23.9979 22.4602 24.0682 22.1648 24.0682ZM22.1648 23.6165C22.3892 23.6165 22.5739 23.5589 22.7188 23.4439C22.8636 23.3288 22.9709 23.1776 23.0405 22.9901C23.1101 22.8026 23.1449 22.5994 23.1449 22.3807C23.1449 22.1619 23.1101 21.9581 23.0405 21.7692C22.9709 21.5803 22.8636 21.4276 22.7188 21.3111C22.5739 21.1946 22.3892 21.1364 22.1648 21.1364C21.9403 21.1364 21.7557 21.1946 21.6108 21.3111C21.4659 21.4276 21.3587 21.5803 21.2891 21.7692C21.2195 21.9581 21.1847 22.1619 21.1847 22.3807C21.1847 22.5994 21.2195 22.8026 21.2891 22.9901C21.3587 23.1776 21.4659 23.3288 21.6108 23.4439C21.7557 23.5589 21.9403 23.6165 22.1648 23.6165ZM25.7363 25.2955C25.4934 25.2955 25.2846 25.2642 25.1099 25.2017C24.9352 25.1406 24.7896 25.0597 24.6731 24.9588C24.5581 24.8594 24.4664 24.7528 24.3983 24.6392L24.7988 24.358C24.8443 24.4176 24.9018 24.4858 24.9714 24.5625C25.041 24.6406 25.1362 24.7081 25.2569 24.7649C25.3791 24.8232 25.5389 24.8523 25.7363 24.8523C26.0005 24.8523 26.2186 24.7884 26.3904 24.6605C26.5623 24.5327 26.6483 24.3324 26.6483 24.0597V23.3949H26.6056C26.5687 23.4545 26.5162 23.5284 26.448 23.6165C26.3812 23.7031 26.2846 23.7805 26.1582 23.8487C26.0332 23.9155 25.8642 23.9489 25.6511 23.9489C25.3869 23.9489 25.1497 23.8864 24.9395 23.7614C24.7306 23.6364 24.5652 23.4545 24.443 23.2159C24.3223 22.9773 24.2619 22.6875 24.2619 22.3466C24.2619 22.0114 24.3208 21.7195 24.4387 21.4709C24.5566 21.2209 24.7207 21.0277 24.9309 20.8913C25.1412 20.7536 25.3841 20.6847 25.6596 20.6847C25.8727 20.6847 26.0417 20.7202 26.1667 20.7912C26.2931 20.8608 26.3897 20.9403 26.4565 21.0298C26.5247 21.1179 26.5772 21.1903 26.6142 21.2472H26.6653V20.7273H27.1511V24.0938C27.1511 24.375 27.0872 24.6037 26.9593 24.7798C26.8329 24.9574 26.6625 25.0874 26.448 25.1697C26.2349 25.2536 25.9977 25.2955 25.7363 25.2955ZM25.7193 23.4972C25.921 23.4972 26.0914 23.451 26.2306 23.3587C26.3699 23.2663 26.4757 23.1335 26.5481 22.9602C26.6206 22.7869 26.6568 22.5795 26.6568 22.3381C26.6568 22.1023 26.6213 21.8942 26.5502 21.7138C26.4792 21.5334 26.3741 21.392 26.2349 21.2898C26.0957 21.1875 25.9238 21.1364 25.7193 21.1364C25.5062 21.1364 25.3287 21.1903 25.1866 21.2983C25.046 21.4062 24.9402 21.5511 24.8691 21.733C24.7995 21.9148 24.7647 22.1165 24.7647 22.3381C24.7647 22.5653 24.8002 22.7663 24.8713 22.9411C24.9437 23.1143 25.0502 23.2507 25.1909 23.3501C25.3329 23.4482 25.5091 23.4972 25.7193 23.4972ZM28.0716 24V20.7273H28.5744V24H28.0716ZM28.3272 20.1818C28.2292 20.1818 28.1447 20.1484 28.0737 20.0817C28.0041 20.0149 27.9693 19.9347 27.9693 19.8409C27.9693 19.7472 28.0041 19.6669 28.0737 19.6001C28.1447 19.5334 28.2292 19.5 28.3272 19.5C28.4252 19.5 28.5091 19.5334 28.5787 19.6001C28.6497 19.6669 28.6852 19.7472 28.6852 19.8409C28.6852 19.9347 28.6497 20.0149 28.5787 20.0817C28.5091 20.1484 28.4252 20.1818 28.3272 20.1818ZM29.9982 22.0312V24H29.4954V20.7273H29.9812V21.2386H30.0238C30.1005 21.0724 30.217 20.9389 30.3732 20.8381C30.5295 20.7358 30.7312 20.6847 30.9783 20.6847C31.1999 20.6847 31.3938 20.7301 31.56 20.821C31.7262 20.9105 31.8555 21.0469 31.9478 21.2301C32.0401 21.4119 32.0863 21.642 32.0863 21.9205V24H31.5835V21.9545C31.5835 21.6974 31.5167 21.4972 31.3832 21.3537C31.2496 21.2088 31.0664 21.1364 30.8335 21.1364C30.6729 21.1364 30.5295 21.1712 30.4031 21.2408C30.2781 21.3104 30.1793 21.4119 30.1069 21.5455C30.0344 21.679 29.9982 21.8409 29.9982 22.0312Z" fill="white"/>
</svg>
