<svg width="100" height="61" viewBox="0 0 100 61" fill="none" xmlns="http://www.w3.org/2000/svg">
<rect width="100" height="61" fill="white"/>
<rect x="6" y="21" width="38" height="5" fill="#143937"/>
<rect x="6" y="29" width="27" height="2" fill="#143937"/>
<rect x="6" y="35" width="27" height="2" fill="#143937"/>
<rect x="6" y="32" width="27" height="2" fill="#143937"/>
<rect x="6" y="38" width="27" height="2" fill="#143937"/>
<rect x="54" y="11" width="39" height="39" rx="5" fill="#143937"/>
<rect x="62" y="30" width="22.0263" height="2" fill="white"/>
<rect x="62" y="36" width="22.0263" height="2" fill="white"/>
<rect x="62" y="33" width="22.0263" height="2" fill="white"/>
<rect x="62" y="39" width="22.0263" height="2" fill="white"/>
<path d="M64.0398 23H63.5114C63.4801 22.848 63.4254 22.7145 63.3473 22.5994C63.2706 22.4844 63.1768 22.3878 63.0661 22.3097C62.9567 22.2301 62.8352 22.1705 62.7017 22.1307C62.5682 22.0909 62.429 22.071 62.2841 22.071C62.0199 22.071 61.7805 22.1378 61.5661 22.2713C61.353 22.4048 61.1832 22.6016 61.0568 22.8615C60.9318 23.1214 60.8693 23.4403 60.8693 23.8182C60.8693 24.196 60.9318 24.5149 61.0568 24.7749C61.1832 25.0348 61.353 25.2315 61.5661 25.3651C61.7805 25.4986 62.0199 25.5653 62.2841 25.5653C62.429 25.5653 62.5682 25.5455 62.7017 25.5057C62.8352 25.4659 62.9567 25.407 63.0661 25.3288C63.1768 25.2493 63.2706 25.152 63.3473 25.0369C63.4254 24.9205 63.4801 24.7869 63.5114 24.6364H64.0398C64 24.8594 63.9276 25.0589 63.8224 25.2351C63.7173 25.4112 63.5866 25.5611 63.4304 25.6847C63.2741 25.8068 63.0987 25.8999 62.9041 25.9638C62.7109 26.0277 62.5043 26.0597 62.2841 26.0597C61.9119 26.0597 61.581 25.9688 61.2912 25.7869C61.0014 25.6051 60.7734 25.3466 60.6072 25.0114C60.4411 24.6761 60.358 24.2784 60.358 23.8182C60.358 23.358 60.4411 22.9602 60.6072 22.625C60.7734 22.2898 61.0014 22.0312 61.2912 21.8494C61.581 21.6676 61.9119 21.5767 62.2841 21.5767C62.5043 21.5767 62.7109 21.6087 62.9041 21.6726C63.0987 21.7365 63.2741 21.8303 63.4304 21.9538C63.5866 22.076 63.7173 22.2251 63.8224 22.4013C63.9276 22.576 64 22.7756 64.0398 23ZM65.7885 26.0767C65.5811 26.0767 65.3929 26.0376 65.2239 25.9595C65.0549 25.88 64.9206 25.7656 64.8212 25.6165C64.7218 25.4659 64.6721 25.2841 64.6721 25.071C64.6721 24.8835 64.709 24.7315 64.7828 24.6151C64.8567 24.4972 64.9554 24.4048 65.079 24.3381C65.2026 24.2713 65.339 24.2216 65.4881 24.1889C65.6387 24.1548 65.79 24.1278 65.9419 24.108C66.1408 24.0824 66.302 24.0632 66.4256 24.0504C66.5506 24.0362 66.6415 24.0128 66.6983 23.9801C66.7566 23.9474 66.7857 23.8906 66.7857 23.8097V23.7926C66.7857 23.5824 66.7282 23.419 66.6131 23.3026C66.4995 23.1861 66.3269 23.1278 66.0953 23.1278C65.8553 23.1278 65.6671 23.1804 65.5307 23.2855C65.3944 23.3906 65.2985 23.5028 65.2431 23.6222L64.7658 23.4517C64.851 23.2528 64.9647 23.098 65.1067 22.9872C65.2502 22.875 65.4064 22.7969 65.5755 22.7528C65.7459 22.7074 65.9135 22.6847 66.0783 22.6847C66.1834 22.6847 66.3042 22.6974 66.4405 22.723C66.5783 22.7472 66.7111 22.7976 66.839 22.8743C66.9682 22.951 67.0755 23.0668 67.1607 23.2216C67.2459 23.3764 67.2885 23.5838 67.2885 23.8438V26H66.7857V25.5568H66.7601C66.726 25.6278 66.6692 25.7038 66.5897 25.7848C66.5101 25.8658 66.4043 25.9347 66.2722 25.9915C66.1401 26.0483 65.9789 26.0767 65.7885 26.0767ZM65.8652 25.625C66.0641 25.625 66.2317 25.5859 66.3681 25.5078C66.5059 25.4297 66.6096 25.3288 66.6792 25.2053C66.7502 25.0817 66.7857 24.9517 66.7857 24.8153V24.3551C66.7644 24.3807 66.7175 24.4041 66.6451 24.4254C66.574 24.4453 66.4917 24.4631 66.3979 24.4787C66.3056 24.4929 66.2154 24.5057 66.1273 24.517C66.0407 24.527 65.9703 24.5355 65.9164 24.5426C65.7857 24.5597 65.6635 24.5874 65.5499 24.6257C65.4377 24.6626 65.3468 24.7187 65.2772 24.794C65.209 24.8679 65.1749 24.9687 65.1749 25.0966C65.1749 25.2713 65.2395 25.4034 65.3688 25.4929C65.4995 25.581 65.665 25.625 65.8652 25.625ZM69.4421 26.0682C69.1694 26.0682 68.9286 25.9993 68.7198 25.8615C68.511 25.7223 68.3477 25.5263 68.2298 25.2734C68.1119 25.0192 68.0529 24.7188 68.0529 24.3722C68.0529 24.0284 68.1119 23.7301 68.2298 23.4773C68.3477 23.2244 68.5117 23.0291 68.7219 22.8913C68.9322 22.7536 69.1751 22.6847 69.4506 22.6847C69.6637 22.6847 69.832 22.7202 69.9556 22.7912C70.0806 22.8608 70.1758 22.9403 70.2411 23.0298C70.3079 23.1179 70.3597 23.1903 70.3967 23.2472H70.4393V21.6364H70.9421V26H70.4563V25.4972H70.3967C70.3597 25.5568 70.3072 25.6321 70.239 25.723C70.1708 25.8125 70.0735 25.8928 69.9471 25.9638C69.8207 26.0334 69.6523 26.0682 69.4421 26.0682ZM69.5103 25.6165C69.712 25.6165 69.8825 25.5639 70.0217 25.4588C70.1609 25.3523 70.2667 25.2053 70.3391 25.0178C70.4116 24.8288 70.4478 24.6108 70.4478 24.3636C70.4478 24.1193 70.4123 23.9055 70.3413 23.7223C70.2702 23.5376 70.1651 23.3942 70.0259 23.2919C69.8867 23.1882 69.7148 23.1364 69.5103 23.1364C69.2972 23.1364 69.1197 23.1911 68.9776 23.3004C68.837 23.4084 68.7312 23.5554 68.6602 23.7415C68.5906 23.9261 68.5558 24.1335 68.5558 24.3636C68.5558 24.5966 68.5913 24.8082 68.6623 24.9986C68.7347 25.1875 68.8413 25.3381 68.9819 25.4503C69.1239 25.5611 69.3001 25.6165 69.5103 25.6165ZM72.896 26.0767C72.6886 26.0767 72.5004 26.0376 72.3313 25.9595C72.1623 25.88 72.0281 25.7656 71.9286 25.6165C71.8292 25.4659 71.7795 25.2841 71.7795 25.071C71.7795 24.8835 71.8164 24.7315 71.8903 24.6151C71.9641 24.4972 72.0629 24.4048 72.1864 24.3381C72.31 24.2713 72.4464 24.2216 72.5955 24.1889C72.7461 24.1548 72.8974 24.1278 73.0494 24.108C73.2482 24.0824 73.4094 24.0632 73.533 24.0504C73.658 24.0362 73.7489 24.0128 73.8058 23.9801C73.864 23.9474 73.8931 23.8906 73.8931 23.8097V23.7926C73.8931 23.5824 73.8356 23.419 73.7205 23.3026C73.6069 23.1861 73.4343 23.1278 73.2028 23.1278C72.9627 23.1278 72.7745 23.1804 72.6381 23.2855C72.5018 23.3906 72.4059 23.5028 72.3505 23.6222L71.8732 23.4517C71.9585 23.2528 72.0721 23.098 72.2141 22.9872C72.3576 22.875 72.5138 22.7969 72.6829 22.7528C72.8533 22.7074 73.021 22.6847 73.1857 22.6847C73.2908 22.6847 73.4116 22.6974 73.5479 22.723C73.6857 22.7472 73.8185 22.7976 73.9464 22.8743C74.0756 22.951 74.1829 23.0668 74.2681 23.2216C74.3533 23.3764 74.396 23.5838 74.396 23.8438V26H73.8931V25.5568H73.8675C73.8335 25.6278 73.7766 25.7038 73.6971 25.7848C73.6175 25.8658 73.5117 25.9347 73.3796 25.9915C73.2475 26.0483 73.0863 26.0767 72.896 26.0767ZM72.9727 25.625C73.1715 25.625 73.3391 25.5859 73.4755 25.5078C73.6133 25.4297 73.717 25.3288 73.7866 25.2053C73.8576 25.0817 73.8931 24.9517 73.8931 24.8153V24.3551C73.8718 24.3807 73.8249 24.4041 73.7525 24.4254C73.6815 24.4453 73.5991 24.4631 73.5053 24.4787C73.413 24.4929 73.3228 24.5057 73.2347 24.517C73.1481 24.527 73.0778 24.5355 73.0238 24.5426C72.8931 24.5597 72.771 24.5874 72.6573 24.6257C72.5451 24.6626 72.4542 24.7187 72.3846 24.794C72.3164 24.8679 72.2823 24.9687 72.2823 25.0966C72.2823 25.2713 72.3469 25.4034 72.4762 25.4929C72.6069 25.581 72.7724 25.625 72.9727 25.625ZM77.6319 23.4602L77.1802 23.5881C77.1518 23.5128 77.1099 23.4396 77.0545 23.3686C77.0005 23.2962 76.9267 23.2365 76.8329 23.1896C76.7392 23.1428 76.6191 23.1193 76.4728 23.1193C76.2725 23.1193 76.1056 23.1655 75.9721 23.2578C75.84 23.3487 75.774 23.4645 75.774 23.6051C75.774 23.7301 75.8194 23.8288 75.9103 23.9013C76.0012 23.9737 76.1433 24.0341 76.3365 24.0824L76.8223 24.2017C77.1149 24.2727 77.3329 24.3814 77.4764 24.5277C77.6199 24.6726 77.6916 24.8594 77.6916 25.0881C77.6916 25.2756 77.6376 25.4432 77.5297 25.5909C77.4231 25.7386 77.274 25.8551 77.0822 25.9403C76.8904 26.0256 76.6674 26.0682 76.4132 26.0682C76.0794 26.0682 75.8031 25.9957 75.5843 25.8509C75.3656 25.706 75.2271 25.4943 75.1689 25.2159L75.6461 25.0966C75.6916 25.2727 75.7775 25.4048 75.9039 25.4929C76.0318 25.581 76.1987 25.625 76.4047 25.625C76.639 25.625 76.8251 25.5753 76.9629 25.4759C77.1021 25.375 77.1717 25.2543 77.1717 25.1136C77.1717 25 77.1319 24.9048 77.0524 24.8281C76.9728 24.75 76.8507 24.6918 76.6859 24.6534L76.1404 24.5256C75.8407 24.4545 75.6206 24.3445 75.4799 24.1953C75.3407 24.0447 75.2711 23.8565 75.2711 23.6307C75.2711 23.446 75.323 23.2827 75.4267 23.1406C75.5318 22.9986 75.6745 22.8871 75.8549 22.8061C76.0368 22.7251 76.2427 22.6847 76.4728 22.6847C76.7967 22.6847 77.051 22.7557 77.2356 22.8977C77.4217 23.0398 77.5538 23.2273 77.6319 23.4602ZM79.8718 22.7273V23.1534H78.1758V22.7273H79.8718ZM78.6701 21.9432H79.1729V25.0625C79.1729 25.2045 79.1935 25.3111 79.2347 25.3821C79.2773 25.4517 79.3313 25.4986 79.3967 25.5227C79.4634 25.5455 79.5337 25.5568 79.6076 25.5568C79.663 25.5568 79.7085 25.554 79.744 25.5483C79.7795 25.5412 79.8079 25.5355 79.8292 25.5312L79.9315 25.983C79.8974 25.9957 79.8498 26.0085 79.7887 26.0213C79.7276 26.0355 79.6502 26.0426 79.5565 26.0426C79.4144 26.0426 79.2752 26.0121 79.1388 25.951C79.0039 25.8899 78.8917 25.7969 78.8022 25.6719C78.7141 25.5469 78.6701 25.3892 78.6701 25.1989V21.9432ZM80.6282 26V22.7273H81.114V23.2216H81.1481C81.2077 23.0597 81.3157 22.9283 81.4719 22.8274C81.6282 22.7266 81.8043 22.6761 82.0004 22.6761C82.0373 22.6761 82.0835 22.6768 82.1388 22.6783C82.1942 22.6797 82.2362 22.6818 82.2646 22.6847V23.196C82.2475 23.1918 82.2085 23.1854 82.1474 23.1768C82.0877 23.1669 82.0245 23.1619 81.9577 23.1619C81.7987 23.1619 81.6566 23.1953 81.5316 23.2621C81.408 23.3274 81.31 23.4183 81.2376 23.5348C81.1665 23.6499 81.131 23.7812 81.131 23.929V26H80.6282ZM84.0906 26.0682C83.7951 26.0682 83.5359 25.9979 83.3129 25.8572C83.0913 25.7166 82.918 25.5199 82.793 25.267C82.6694 25.0142 82.6076 24.7187 82.6076 24.3807C82.6076 24.0398 82.6694 23.7422 82.793 23.4879C82.918 23.2337 83.0913 23.0362 83.3129 22.8956C83.5359 22.755 83.7951 22.6847 84.0906 22.6847C84.386 22.6847 84.6445 22.755 84.8661 22.8956C85.0891 23.0362 85.2624 23.2337 85.386 23.4879C85.511 23.7422 85.5735 24.0398 85.5735 24.3807C85.5735 24.7187 85.511 25.0142 85.386 25.267C85.2624 25.5199 85.0891 25.7166 84.8661 25.8572C84.6445 25.9979 84.386 26.0682 84.0906 26.0682ZM84.0906 25.6165C84.315 25.6165 84.4996 25.5589 84.6445 25.4439C84.7894 25.3288 84.8967 25.1776 84.9663 24.9901C85.0359 24.8026 85.0707 24.5994 85.0707 24.3807C85.0707 24.1619 85.0359 23.9581 84.9663 23.7692C84.8967 23.5803 84.7894 23.4276 84.6445 23.3111C84.4996 23.1946 84.315 23.1364 84.0906 23.1364C83.8661 23.1364 83.6815 23.1946 83.5366 23.3111C83.3917 23.4276 83.2844 23.5803 83.2148 23.7692C83.1452 23.9581 83.1104 24.1619 83.1104 24.3807C83.1104 24.5994 83.1452 24.8026 83.2148 24.9901C83.2844 25.1776 83.3917 25.3288 83.5366 25.4439C83.6815 25.5589 83.8661 25.6165 84.0906 25.6165Z" fill="white"/>
</svg>
