<svg width="100" height="61" viewBox="0 0 100 61" fill="none" xmlns="http://www.w3.org/2000/svg">
<rect width="100" height="61" fill="white"/>
<rect x="6" y="21" width="38" height="5" fill="#143937"/>
<rect x="6" y="29" width="27" height="2" fill="#143937"/>
<rect x="6" y="35" width="27" height="2" fill="#143937"/>
<rect x="6" y="32" width="27" height="2" fill="#143937"/>
<rect x="6" y="38" width="27" height="2" fill="#143937"/>
<rect x="54" y="11" width="39" height="39" rx="5" fill="#143937"/>
<rect x="62" y="30" width="22.0263" height="2" fill="white"/>
<rect x="62" y="36" width="22.0263" height="2" fill="white"/>
<rect x="62" y="33" width="22.0263" height="2" fill="white"/>
<rect x="62" y="39" width="22.0263" height="2" fill="white"/>
<path d="M65.5284 26V21.6364H66.0568V25.5312H68.0852V26H65.5284ZM70.1648 26.0682C69.8693 26.0682 69.6101 25.9979 69.3871 25.8572C69.1655 25.7166 68.9922 25.5199 68.8672 25.267C68.7436 25.0142 68.6818 24.7187 68.6818 24.3807C68.6818 24.0398 68.7436 23.7422 68.8672 23.4879C68.9922 23.2337 69.1655 23.0362 69.3871 22.8956C69.6101 22.755 69.8693 22.6847 70.1648 22.6847C70.4602 22.6847 70.7188 22.755 70.9403 22.8956C71.1634 23.0362 71.3366 23.2337 71.4602 23.4879C71.5852 23.7422 71.6477 24.0398 71.6477 24.3807C71.6477 24.7187 71.5852 25.0142 71.4602 25.267C71.3366 25.5199 71.1634 25.7166 70.9403 25.8572C70.7188 25.9979 70.4602 26.0682 70.1648 26.0682ZM70.1648 25.6165C70.3892 25.6165 70.5739 25.5589 70.7188 25.4439C70.8636 25.3288 70.9709 25.1776 71.0405 24.9901C71.1101 24.8026 71.1449 24.5994 71.1449 24.3807C71.1449 24.1619 71.1101 23.9581 71.0405 23.7692C70.9709 23.5803 70.8636 23.4276 70.7188 23.3111C70.5739 23.1946 70.3892 23.1364 70.1648 23.1364C69.9403 23.1364 69.7557 23.1946 69.6108 23.3111C69.4659 23.4276 69.3587 23.5803 69.2891 23.7692C69.2195 23.9581 69.1847 24.1619 69.1847 24.3807C69.1847 24.5994 69.2195 24.8026 69.2891 24.9901C69.3587 25.1776 69.4659 25.3288 69.6108 25.4439C69.7557 25.5589 69.9403 25.6165 70.1648 25.6165ZM73.7363 27.2955C73.4934 27.2955 73.2846 27.2642 73.1099 27.2017C72.9352 27.1406 72.7896 27.0597 72.6731 26.9588C72.5581 26.8594 72.4664 26.7528 72.3983 26.6392L72.7988 26.358C72.8443 26.4176 72.9018 26.4858 72.9714 26.5625C73.041 26.6406 73.1362 26.7081 73.2569 26.7649C73.3791 26.8232 73.5389 26.8523 73.7363 26.8523C74.0005 26.8523 74.2186 26.7884 74.3904 26.6605C74.5623 26.5327 74.6483 26.3324 74.6483 26.0597V25.3949H74.6056C74.5687 25.4545 74.5162 25.5284 74.448 25.6165C74.3812 25.7031 74.2846 25.7805 74.1582 25.8487C74.0332 25.9155 73.8642 25.9489 73.6511 25.9489C73.3869 25.9489 73.1497 25.8864 72.9395 25.7614C72.7306 25.6364 72.5652 25.4545 72.443 25.2159C72.3223 24.9773 72.2619 24.6875 72.2619 24.3466C72.2619 24.0114 72.3208 23.7195 72.4387 23.4709C72.5566 23.2209 72.7207 23.0277 72.9309 22.8913C73.1412 22.7536 73.3841 22.6847 73.6596 22.6847C73.8727 22.6847 74.0417 22.7202 74.1667 22.7912C74.2931 22.8608 74.3897 22.9403 74.4565 23.0298C74.5247 23.1179 74.5772 23.1903 74.6142 23.2472H74.6653V22.7273H75.1511V26.0938C75.1511 26.375 75.0872 26.6037 74.9593 26.7798C74.8329 26.9574 74.6625 27.0874 74.448 27.1697C74.2349 27.2536 73.9977 27.2955 73.7363 27.2955ZM73.7193 25.4972C73.921 25.4972 74.0914 25.451 74.2306 25.3587C74.3699 25.2663 74.4757 25.1335 74.5481 24.9602C74.6206 24.7869 74.6568 24.5795 74.6568 24.3381C74.6568 24.1023 74.6213 23.8942 74.5502 23.7138C74.4792 23.5334 74.3741 23.392 74.2349 23.2898C74.0957 23.1875 73.9238 23.1364 73.7193 23.1364C73.5062 23.1364 73.3287 23.1903 73.1866 23.2983C73.046 23.4062 72.9402 23.5511 72.8691 23.733C72.7995 23.9148 72.7647 24.1165 72.7647 24.3381C72.7647 24.5653 72.8002 24.7663 72.8713 24.9411C72.9437 25.1143 73.0502 25.2507 73.1909 25.3501C73.3329 25.4482 73.5091 25.4972 73.7193 25.4972ZM76.0716 26V22.7273H76.5744V26H76.0716ZM76.3272 22.1818C76.2292 22.1818 76.1447 22.1484 76.0737 22.0817C76.0041 22.0149 75.9693 21.9347 75.9693 21.8409C75.9693 21.7472 76.0041 21.6669 76.0737 21.6001C76.1447 21.5334 76.2292 21.5 76.3272 21.5C76.4252 21.5 76.5091 21.5334 76.5787 21.6001C76.6497 21.6669 76.6852 21.7472 76.6852 21.8409C76.6852 21.9347 76.6497 22.0149 76.5787 22.0817C76.5091 22.1484 76.4252 22.1818 76.3272 22.1818ZM77.9982 24.0312V26H77.4954V22.7273H77.9812V23.2386H78.0238C78.1005 23.0724 78.217 22.9389 78.3732 22.8381C78.5295 22.7358 78.7312 22.6847 78.9783 22.6847C79.1999 22.6847 79.3938 22.7301 79.56 22.821C79.7262 22.9105 79.8555 23.0469 79.9478 23.2301C80.0401 23.4119 80.0863 23.642 80.0863 23.9205V26H79.5835V23.9545C79.5835 23.6974 79.5167 23.4972 79.3832 23.3537C79.2496 23.2088 79.0664 23.1364 78.8335 23.1364C78.6729 23.1364 78.5295 23.1712 78.4031 23.2408C78.2781 23.3104 78.1793 23.4119 78.1069 23.5455C78.0344 23.679 77.9982 23.8409 77.9982 24.0312Z" fill="white"/>
</svg>
