<svg width="100" height="61" viewBox="0 0 100 61" fill="none" xmlns="http://www.w3.org/2000/svg">
<rect width="100" height="61" fill="white"/>
<rect x="55" y="21" width="38" height="5" fill="#143937"/>
<rect x="55" y="29" width="27" height="2" fill="#143937"/>
<rect x="55" y="35" width="27" height="2" fill="#143937"/>
<rect x="55" y="32" width="27" height="2" fill="#143937"/>
<rect x="55" y="38" width="27" height="2" fill="#143937"/>
<rect x="6" y="11" width="39" height="39" rx="5" fill="#143937"/>
<rect x="14" y="30" width="22.0263" height="2" fill="white"/>
<rect x="14" y="36" width="22.0263" height="2" fill="white"/>
<rect x="14" y="33" width="22.0263" height="2" fill="white"/>
<rect x="14" y="39" width="22.0263" height="2" fill="white"/>
<path d="M16.0398 23H15.5114C15.4801 22.848 15.4254 22.7145 15.3473 22.5994C15.2706 22.4844 15.1768 22.3878 15.0661 22.3097C14.9567 22.2301 14.8352 22.1705 14.7017 22.1307C14.5682 22.0909 14.429 22.071 14.2841 22.071C14.0199 22.071 13.7805 22.1378 13.5661 22.2713C13.353 22.4048 13.1832 22.6016 13.0568 22.8615C12.9318 23.1214 12.8693 23.4403 12.8693 23.8182C12.8693 24.196 12.9318 24.5149 13.0568 24.7749C13.1832 25.0348 13.353 25.2315 13.5661 25.3651C13.7805 25.4986 14.0199 25.5653 14.2841 25.5653C14.429 25.5653 14.5682 25.5455 14.7017 25.5057C14.8352 25.4659 14.9567 25.407 15.0661 25.3288C15.1768 25.2493 15.2706 25.152 15.3473 25.0369C15.4254 24.9205 15.4801 24.7869 15.5114 24.6364H16.0398C16 24.8594 15.9276 25.0589 15.8224 25.2351C15.7173 25.4112 15.5866 25.5611 15.4304 25.6847C15.2741 25.8068 15.0987 25.8999 14.9041 25.9638C14.7109 26.0277 14.5043 26.0597 14.2841 26.0597C13.9119 26.0597 13.581 25.9688 13.2912 25.7869C13.0014 25.6051 12.7734 25.3466 12.6072 25.0114C12.4411 24.6761 12.358 24.2784 12.358 23.8182C12.358 23.358 12.4411 22.9602 12.6072 22.625C12.7734 22.2898 13.0014 22.0312 13.2912 21.8494C13.581 21.6676 13.9119 21.5767 14.2841 21.5767C14.5043 21.5767 14.7109 21.6087 14.9041 21.6726C15.0987 21.7365 15.2741 21.8303 15.4304 21.9538C15.5866 22.076 15.7173 22.2251 15.8224 22.4013C15.9276 22.576 16 22.7756 16.0398 23ZM17.7885 26.0767C17.5811 26.0767 17.3929 26.0376 17.2239 25.9595C17.0549 25.88 16.9206 25.7656 16.8212 25.6165C16.7218 25.4659 16.6721 25.2841 16.6721 25.071C16.6721 24.8835 16.709 24.7315 16.7828 24.6151C16.8567 24.4972 16.9554 24.4048 17.079 24.3381C17.2026 24.2713 17.339 24.2216 17.4881 24.1889C17.6387 24.1548 17.79 24.1278 17.9419 24.108C18.1408 24.0824 18.302 24.0632 18.4256 24.0504C18.5506 24.0362 18.6415 24.0128 18.6983 23.9801C18.7566 23.9474 18.7857 23.8906 18.7857 23.8097V23.7926C18.7857 23.5824 18.7282 23.419 18.6131 23.3026C18.4995 23.1861 18.3269 23.1278 18.0953 23.1278C17.8553 23.1278 17.6671 23.1804 17.5307 23.2855C17.3944 23.3906 17.2985 23.5028 17.2431 23.6222L16.7658 23.4517C16.851 23.2528 16.9647 23.098 17.1067 22.9872C17.2502 22.875 17.4064 22.7969 17.5755 22.7528C17.7459 22.7074 17.9135 22.6847 18.0783 22.6847C18.1834 22.6847 18.3042 22.6974 18.4405 22.723C18.5783 22.7472 18.7111 22.7976 18.839 22.8743C18.9682 22.951 19.0755 23.0668 19.1607 23.2216C19.2459 23.3764 19.2885 23.5838 19.2885 23.8438V26H18.7857V25.5568H18.7601C18.726 25.6278 18.6692 25.7038 18.5897 25.7848C18.5101 25.8658 18.4043 25.9347 18.2722 25.9915C18.1401 26.0483 17.9789 26.0767 17.7885 26.0767ZM17.8652 25.625C18.0641 25.625 18.2317 25.5859 18.3681 25.5078C18.5059 25.4297 18.6096 25.3288 18.6792 25.2053C18.7502 25.0817 18.7857 24.9517 18.7857 24.8153V24.3551C18.7644 24.3807 18.7175 24.4041 18.6451 24.4254C18.574 24.4453 18.4917 24.4631 18.3979 24.4787C18.3056 24.4929 18.2154 24.5057 18.1273 24.517C18.0407 24.527 17.9703 24.5355 17.9164 24.5426C17.7857 24.5597 17.6635 24.5874 17.5499 24.6257C17.4377 24.6626 17.3468 24.7187 17.2772 24.794C17.209 24.8679 17.1749 24.9687 17.1749 25.0966C17.1749 25.2713 17.2395 25.4034 17.3688 25.4929C17.4995 25.581 17.665 25.625 17.8652 25.625ZM21.4421 26.0682C21.1694 26.0682 20.9286 25.9993 20.7198 25.8615C20.511 25.7223 20.3477 25.5263 20.2298 25.2734C20.1119 25.0192 20.0529 24.7188 20.0529 24.3722C20.0529 24.0284 20.1119 23.7301 20.2298 23.4773C20.3477 23.2244 20.5117 23.0291 20.7219 22.8913C20.9322 22.7536 21.1751 22.6847 21.4506 22.6847C21.6637 22.6847 21.832 22.7202 21.9556 22.7912C22.0806 22.8608 22.1758 22.9403 22.2411 23.0298C22.3079 23.1179 22.3597 23.1903 22.3967 23.2472H22.4393V21.6364H22.9421V26H22.4563V25.4972H22.3967C22.3597 25.5568 22.3072 25.6321 22.239 25.723C22.1708 25.8125 22.0735 25.8928 21.9471 25.9638C21.8207 26.0334 21.6523 26.0682 21.4421 26.0682ZM21.5103 25.6165C21.712 25.6165 21.8825 25.5639 22.0217 25.4588C22.1609 25.3523 22.2667 25.2053 22.3391 25.0178C22.4116 24.8288 22.4478 24.6108 22.4478 24.3636C22.4478 24.1193 22.4123 23.9055 22.3413 23.7223C22.2702 23.5376 22.1651 23.3942 22.0259 23.2919C21.8867 23.1882 21.7148 23.1364 21.5103 23.1364C21.2972 23.1364 21.1197 23.1911 20.9776 23.3004C20.837 23.4084 20.7312 23.5554 20.6602 23.7415C20.5906 23.9261 20.5558 24.1335 20.5558 24.3636C20.5558 24.5966 20.5913 24.8082 20.6623 24.9986C20.7347 25.1875 20.8413 25.3381 20.9819 25.4503C21.1239 25.5611 21.3001 25.6165 21.5103 25.6165ZM24.896 26.0767C24.6886 26.0767 24.5004 26.0376 24.3313 25.9595C24.1623 25.88 24.0281 25.7656 23.9286 25.6165C23.8292 25.4659 23.7795 25.2841 23.7795 25.071C23.7795 24.8835 23.8164 24.7315 23.8903 24.6151C23.9641 24.4972 24.0629 24.4048 24.1864 24.3381C24.31 24.2713 24.4464 24.2216 24.5955 24.1889C24.7461 24.1548 24.8974 24.1278 25.0494 24.108C25.2482 24.0824 25.4094 24.0632 25.533 24.0504C25.658 24.0362 25.7489 24.0128 25.8058 23.9801C25.864 23.9474 25.8931 23.8906 25.8931 23.8097V23.7926C25.8931 23.5824 25.8356 23.419 25.7205 23.3026C25.6069 23.1861 25.4343 23.1278 25.2028 23.1278C24.9627 23.1278 24.7745 23.1804 24.6381 23.2855C24.5018 23.3906 24.4059 23.5028 24.3505 23.6222L23.8732 23.4517C23.9585 23.2528 24.0721 23.098 24.2141 22.9872C24.3576 22.875 24.5138 22.7969 24.6829 22.7528C24.8533 22.7074 25.021 22.6847 25.1857 22.6847C25.2908 22.6847 25.4116 22.6974 25.5479 22.723C25.6857 22.7472 25.8185 22.7976 25.9464 22.8743C26.0756 22.951 26.1829 23.0668 26.2681 23.2216C26.3533 23.3764 26.396 23.5838 26.396 23.8438V26H25.8931V25.5568H25.8675C25.8335 25.6278 25.7766 25.7038 25.6971 25.7848C25.6175 25.8658 25.5117 25.9347 25.3796 25.9915C25.2475 26.0483 25.0863 26.0767 24.896 26.0767ZM24.9727 25.625C25.1715 25.625 25.3391 25.5859 25.4755 25.5078C25.6133 25.4297 25.717 25.3288 25.7866 25.2053C25.8576 25.0817 25.8931 24.9517 25.8931 24.8153V24.3551C25.8718 24.3807 25.8249 24.4041 25.7525 24.4254C25.6815 24.4453 25.5991 24.4631 25.5053 24.4787C25.413 24.4929 25.3228 24.5057 25.2347 24.517C25.1481 24.527 25.0778 24.5355 25.0238 24.5426C24.8931 24.5597 24.771 24.5874 24.6573 24.6257C24.5451 24.6626 24.4542 24.7187 24.3846 24.794C24.3164 24.8679 24.2823 24.9687 24.2823 25.0966C24.2823 25.2713 24.3469 25.4034 24.4762 25.4929C24.6069 25.581 24.7724 25.625 24.9727 25.625ZM29.6319 23.4602L29.1802 23.5881C29.1518 23.5128 29.1099 23.4396 29.0545 23.3686C29.0005 23.2962 28.9267 23.2365 28.8329 23.1896C28.7392 23.1428 28.6191 23.1193 28.4728 23.1193C28.2725 23.1193 28.1056 23.1655 27.9721 23.2578C27.84 23.3487 27.774 23.4645 27.774 23.6051C27.774 23.7301 27.8194 23.8288 27.9103 23.9013C28.0012 23.9737 28.1433 24.0341 28.3365 24.0824L28.8223 24.2017C29.1149 24.2727 29.3329 24.3814 29.4764 24.5277C29.6199 24.6726 29.6916 24.8594 29.6916 25.0881C29.6916 25.2756 29.6376 25.4432 29.5297 25.5909C29.4231 25.7386 29.274 25.8551 29.0822 25.9403C28.8904 26.0256 28.6674 26.0682 28.4132 26.0682C28.0794 26.0682 27.8031 25.9957 27.5843 25.8509C27.3656 25.706 27.2271 25.4943 27.1689 25.2159L27.6461 25.0966C27.6916 25.2727 27.7775 25.4048 27.9039 25.4929C28.0318 25.581 28.1987 25.625 28.4047 25.625C28.639 25.625 28.8251 25.5753 28.9629 25.4759C29.1021 25.375 29.1717 25.2543 29.1717 25.1136C29.1717 25 29.1319 24.9048 29.0524 24.8281C28.9728 24.75 28.8507 24.6918 28.6859 24.6534L28.1404 24.5256C27.8407 24.4545 27.6206 24.3445 27.4799 24.1953C27.3407 24.0447 27.2711 23.8565 27.2711 23.6307C27.2711 23.446 27.323 23.2827 27.4267 23.1406C27.5318 22.9986 27.6745 22.8871 27.8549 22.8061C28.0368 22.7251 28.2427 22.6847 28.4728 22.6847C28.7967 22.6847 29.051 22.7557 29.2356 22.8977C29.4217 23.0398 29.5538 23.2273 29.6319 23.4602ZM31.8718 22.7273V23.1534H30.1758V22.7273H31.8718ZM30.6701 21.9432H31.1729V25.0625C31.1729 25.2045 31.1935 25.3111 31.2347 25.3821C31.2773 25.4517 31.3313 25.4986 31.3967 25.5227C31.4634 25.5455 31.5337 25.5568 31.6076 25.5568C31.663 25.5568 31.7085 25.554 31.744 25.5483C31.7795 25.5412 31.8079 25.5355 31.8292 25.5312L31.9315 25.983C31.8974 25.9957 31.8498 26.0085 31.7887 26.0213C31.7276 26.0355 31.6502 26.0426 31.5565 26.0426C31.4144 26.0426 31.2752 26.0121 31.1388 25.951C31.0039 25.8899 30.8917 25.7969 30.8022 25.6719C30.7141 25.5469 30.6701 25.3892 30.6701 25.1989V21.9432ZM32.6282 26V22.7273H33.114V23.2216H33.1481C33.2077 23.0597 33.3157 22.9283 33.4719 22.8274C33.6282 22.7266 33.8043 22.6761 34.0004 22.6761C34.0373 22.6761 34.0835 22.6768 34.1388 22.6783C34.1942 22.6797 34.2362 22.6818 34.2646 22.6847V23.196C34.2475 23.1918 34.2085 23.1854 34.1474 23.1768C34.0877 23.1669 34.0245 23.1619 33.9577 23.1619C33.7987 23.1619 33.6566 23.1953 33.5316 23.2621C33.408 23.3274 33.31 23.4183 33.2376 23.5348C33.1665 23.6499 33.131 23.7812 33.131 23.929V26H32.6282ZM36.0906 26.0682C35.7951 26.0682 35.5359 25.9979 35.3129 25.8572C35.0913 25.7166 34.918 25.5199 34.793 25.267C34.6694 25.0142 34.6076 24.7187 34.6076 24.3807C34.6076 24.0398 34.6694 23.7422 34.793 23.4879C34.918 23.2337 35.0913 23.0362 35.3129 22.8956C35.5359 22.755 35.7951 22.6847 36.0906 22.6847C36.386 22.6847 36.6445 22.755 36.8661 22.8956C37.0891 23.0362 37.2624 23.2337 37.386 23.4879C37.511 23.7422 37.5735 24.0398 37.5735 24.3807C37.5735 24.7187 37.511 25.0142 37.386 25.267C37.2624 25.5199 37.0891 25.7166 36.8661 25.8572C36.6445 25.9979 36.386 26.0682 36.0906 26.0682ZM36.0906 25.6165C36.315 25.6165 36.4996 25.5589 36.6445 25.4439C36.7894 25.3288 36.8967 25.1776 36.9663 24.9901C37.0359 24.8026 37.0707 24.5994 37.0707 24.3807C37.0707 24.1619 37.0359 23.9581 36.9663 23.7692C36.8967 23.5803 36.7894 23.4276 36.6445 23.3111C36.4996 23.1946 36.315 23.1364 36.0906 23.1364C35.8661 23.1364 35.6815 23.1946 35.5366 23.3111C35.3917 23.4276 35.2844 23.5803 35.2148 23.7692C35.1452 23.9581 35.1104 24.1619 35.1104 24.3807C35.1104 24.5994 35.1452 24.8026 35.2148 24.9901C35.2844 25.1776 35.3917 25.3288 35.5366 25.4439C35.6815 25.5589 35.8661 25.6165 36.0906 25.6165Z" fill="white"/>
</svg>
