<svg width="100" height="61" viewBox="0 0 100 61" fill="none" xmlns="http://www.w3.org/2000/svg">
<rect width="100" height="61" fill="white"/>
<rect x="55" y="21" width="38" height="5" fill="#143937"/>
<rect x="55" y="29" width="27" height="2" fill="#143937"/>
<rect x="55" y="35" width="27" height="2" fill="#143937"/>
<rect x="55" y="32" width="27" height="2" fill="#143937"/>
<rect x="55" y="38" width="27" height="2" fill="#143937"/>
<g clip-path="url(#clip0_1059_44)">
<path d="M13.7614 18.7273V26H12.8807V18.7273H13.7614ZM15.4135 26V20.5455H16.2232V21.3977H16.2942C16.4078 21.1065 16.5913 20.8804 16.8446 20.7195C17.098 20.5561 17.4022 20.4744 17.7573 20.4744C18.1171 20.4744 18.4166 20.5561 18.6557 20.7195C18.8972 20.8804 19.0854 21.1065 19.2203 21.3977H19.2772C19.4168 21.116 19.6264 20.8923 19.9057 20.7266C20.1851 20.5585 20.5201 20.4744 20.9107 20.4744C21.3984 20.4744 21.7973 20.6271 22.1074 20.9325C22.4176 21.2356 22.5726 21.7079 22.5726 22.3494V26H21.7346V22.3494C21.7346 21.947 21.6245 21.6593 21.4043 21.4865C21.1841 21.3137 20.9249 21.2273 20.6266 21.2273C20.2431 21.2273 19.946 21.3433 19.7353 21.5753C19.5246 21.8049 19.4192 22.0961 19.4192 22.4489V26H18.5669V22.2642C18.5669 21.9541 18.4663 21.7043 18.2651 21.5149C18.0639 21.3232 17.8046 21.2273 17.4874 21.2273C17.2696 21.2273 17.066 21.2853 16.8766 21.4013C16.6896 21.5173 16.5381 21.6783 16.4221 21.8842C16.3084 22.0878 16.2516 22.3234 16.2516 22.5909V26H15.4135ZM25.71 26.1278C25.3644 26.1278 25.0507 26.0627 24.769 25.9325C24.4873 25.8 24.2636 25.6094 24.0978 25.3608C23.9321 25.1098 23.8493 24.8068 23.8493 24.4517C23.8493 24.1392 23.9108 23.8859 24.0339 23.6918C24.157 23.4953 24.3216 23.3414 24.5275 23.2301C24.7335 23.1188 24.9608 23.036 25.2093 22.9815C25.4603 22.9247 25.7124 22.8797 25.9657 22.8466C26.2972 22.804 26.5659 22.772 26.7718 22.7507C26.9802 22.727 27.1317 22.688 27.2264 22.6335C27.3234 22.5791 27.372 22.4844 27.372 22.3494V22.321C27.372 21.9706 27.2761 21.6984 27.0843 21.5043C26.8949 21.3101 26.6073 21.2131 26.2214 21.2131C25.8213 21.2131 25.5076 21.3007 25.2804 21.4759C25.0531 21.651 24.8933 21.8381 24.801 22.0369L24.0055 21.7528C24.1475 21.4214 24.3369 21.1634 24.5737 20.9787C24.8128 20.7917 25.0732 20.6615 25.3549 20.5881C25.639 20.5123 25.9184 20.4744 26.193 20.4744C26.3682 20.4744 26.5694 20.4957 26.7967 20.5384C27.0263 20.5786 27.2477 20.6626 27.4608 20.7905C27.6762 20.9183 27.8549 21.1113 27.997 21.3693C28.139 21.6274 28.21 21.973 28.21 22.4062V26H27.372V25.2614H27.3294C27.2725 25.3797 27.1779 25.5064 27.0453 25.6413C26.9127 25.7763 26.7363 25.8911 26.5162 25.9858C26.296 26.0805 26.0273 26.1278 25.71 26.1278ZM25.8379 25.375C26.1693 25.375 26.4487 25.3099 26.676 25.1797C26.9056 25.0495 27.0784 24.8814 27.1944 24.6754C27.3128 24.4695 27.372 24.2528 27.372 24.0256V23.2585C27.3365 23.3011 27.2583 23.3402 27.1376 23.3757C27.0192 23.4089 26.8819 23.4384 26.7257 23.4645C26.5718 23.4882 26.4215 23.5095 26.2747 23.5284C26.1303 23.545 26.0131 23.5592 25.9231 23.571C25.7053 23.5994 25.5017 23.6456 25.3123 23.7095C25.1253 23.7711 24.9738 23.8646 24.8578 23.9901C24.7441 24.1132 24.6873 24.2812 24.6873 24.4943C24.6873 24.7855 24.795 25.0057 25.0105 25.1548C25.2283 25.3016 25.5041 25.375 25.8379 25.375ZM31.9414 28.1591C31.5366 28.1591 31.1886 28.107 30.8974 28.0028C30.6062 27.901 30.3635 27.7661 30.1694 27.598C29.9776 27.4323 29.8249 27.2547 29.7113 27.0653L30.3789 26.5966C30.4547 26.696 30.5505 26.8097 30.6665 26.9375C30.7826 27.0677 30.9412 27.1802 31.1424 27.2749C31.346 27.3719 31.6123 27.4205 31.9414 27.4205C32.3817 27.4205 32.7451 27.3139 33.0316 27.1009C33.3181 26.8878 33.4613 26.554 33.4613 26.0994V24.9915H33.3903C33.3287 25.0909 33.2411 25.214 33.1275 25.3608C33.0162 25.5052 32.8552 25.6342 32.6445 25.7479C32.4362 25.8591 32.1545 25.9148 31.7994 25.9148C31.359 25.9148 30.9637 25.8106 30.6133 25.6023C30.2653 25.3939 29.9895 25.0909 29.7859 24.6932C29.5846 24.2955 29.484 23.8125 29.484 23.2443C29.484 22.6856 29.5823 22.1991 29.7788 21.7848C29.9753 21.3681 30.2487 21.0462 30.5991 20.8189C30.9495 20.5893 31.3543 20.4744 31.8136 20.4744C32.1687 20.4744 32.4504 20.5336 32.6587 20.652C32.8694 20.768 33.0304 20.9006 33.1417 21.0497C33.2553 21.1965 33.3429 21.3172 33.4045 21.4119H33.4897V20.5455H34.2994V26.1562C34.2994 26.625 34.1928 27.0062 33.9798 27.2997C33.7691 27.5956 33.485 27.8123 33.1275 27.9496C32.7724 28.0893 32.377 28.1591 31.9414 28.1591ZM31.913 25.1619C32.2492 25.1619 32.5333 25.085 32.7653 24.9311C32.9973 24.7772 33.1737 24.5559 33.2944 24.267C33.4151 23.9782 33.4755 23.6326 33.4755 23.2301C33.4755 22.8371 33.4163 22.4903 33.2979 22.1896C33.1796 21.889 33.0044 21.6534 32.7724 21.483C32.5404 21.3125 32.2539 21.2273 31.913 21.2273C31.5579 21.2273 31.262 21.3172 31.0252 21.4972C30.7908 21.6771 30.6145 21.9186 30.4961 22.2216C30.3801 22.5246 30.3221 22.8608 30.3221 23.2301C30.3221 23.6089 30.3813 23.9439 30.4996 24.2351C30.6204 24.5239 30.7979 24.7512 31.0323 24.9169C31.2691 25.0803 31.5626 25.1619 31.913 25.1619ZM38.1204 26.1136C37.5948 26.1136 37.1415 25.9976 36.7603 25.7656C36.3815 25.5312 36.0891 25.2045 35.8832 24.7855C35.6796 24.3641 35.5778 23.8741 35.5778 23.3153C35.5778 22.7566 35.6796 22.2642 35.8832 21.8381C36.0891 21.4096 36.3756 21.0758 36.7425 20.8366C37.1119 20.5952 37.5427 20.4744 38.0352 20.4744C38.3192 20.4744 38.5998 20.5218 38.8768 20.6165C39.1538 20.7112 39.4059 20.8651 39.6332 21.0781C39.8604 21.2888 40.0415 21.5682 40.1765 21.9162C40.3114 22.2642 40.3789 22.6927 40.3789 23.2017V23.5568H36.1744V22.8324H39.5266C39.5266 22.5246 39.4651 22.25 39.342 22.0085C39.2212 21.767 39.0484 21.5765 38.8235 21.4368C38.601 21.2971 38.3382 21.2273 38.0352 21.2273C37.7013 21.2273 37.4125 21.3101 37.1687 21.4759C36.9272 21.6392 36.7414 21.8523 36.6112 22.1151C36.4809 22.3778 36.4158 22.6596 36.4158 22.9602V23.4432C36.4158 23.8551 36.4869 24.2043 36.6289 24.4908C36.7733 24.7749 36.9734 24.9915 37.229 25.1406C37.4847 25.2874 37.7818 25.3608 38.1204 25.3608C38.3406 25.3608 38.5394 25.33 38.717 25.2685C38.8969 25.2045 39.052 25.1098 39.1822 24.9844C39.3124 24.8565 39.413 24.6979 39.484 24.5085L40.2937 24.7358C40.2085 25.0104 40.0652 25.2519 39.864 25.4602C39.6628 25.6662 39.4142 25.8272 39.1183 25.9432C38.8223 26.0568 38.4897 26.1136 38.1204 26.1136Z" fill="white"/>
<rect x="6" y="11" width="40" height="40" rx="7" fill="#143937"/>
<g clip-path="url(#clip1_1059_44)">
<path d="M33.7917 29.3125V24.2083C33.7917 23.4063 33.1354 22.75 32.3333 22.75H14.8333C14.0313 22.75 13.375 23.4063 13.375 24.2083V38.7917C13.375 39.5938 14.0313 40.25 14.8333 40.25H32.3333C33.1354 40.25 33.7917 39.5938 33.7917 38.7917V33.6875L39.625 39.5208V23.4792L33.7917 29.3125Z" fill="white"/>
</g>
</g>
<defs>
<clipPath id="clip0_1059_44">
<rect width="52" height="52" fill="white" transform="translate(0 5)"/>
</clipPath>
<clipPath id="clip1_1059_44">
<rect width="35" height="35" fill="white" transform="translate(9 14)"/>
</clipPath>
</defs>
</svg>
