<svg width="100" height="61" viewBox="0 0 100 61" fill="none" xmlns="http://www.w3.org/2000/svg">
<rect width="100" height="61" fill="white"/>
<rect x="7" y="21" width="38" height="5" fill="#143937"/>
<rect x="7" y="29" width="27" height="2" fill="#143937"/>
<rect x="7" y="35" width="27" height="2" fill="#143937"/>
<rect x="7" y="32" width="27" height="2" fill="#143937"/>
<rect x="7" y="38" width="27" height="2" fill="#143937"/>
<g clip-path="url(#clip0_1059_9)">
<path d="M93.5 46.1667V15.8333C93.5 13.45 91.55 11.5 89.1667 11.5H58.8333C56.45 11.5 54.5 13.45 54.5 15.8333V46.1667C54.5 48.55 56.45 50.5 58.8333 50.5H89.1667C91.55 50.5 93.5 48.55 93.5 46.1667ZM66.4167 34.25L71.8333 40.7717L79.4167 31L89.1667 44H58.8333L66.4167 34.25Z" fill="#143937"/>
<path d="M61.7614 18.7273V26H60.8807V18.7273H61.7614ZM63.4135 26V20.5455H64.2232V21.3977H64.2942C64.4078 21.1065 64.5913 20.8804 64.8446 20.7195C65.098 20.5561 65.4022 20.4744 65.7573 20.4744C66.1171 20.4744 66.4166 20.5561 66.6557 20.7195C66.8972 20.8804 67.0854 21.1065 67.2203 21.3977H67.2772C67.4168 21.116 67.6264 20.8923 67.9057 20.7266C68.1851 20.5585 68.5201 20.4744 68.9107 20.4744C69.3984 20.4744 69.7973 20.6271 70.1074 20.9325C70.4176 21.2356 70.5726 21.7079 70.5726 22.3494V26H69.7346V22.3494C69.7346 21.947 69.6245 21.6593 69.4043 21.4865C69.1841 21.3137 68.9249 21.2273 68.6266 21.2273C68.2431 21.2273 67.946 21.3433 67.7353 21.5753C67.5246 21.8049 67.4192 22.0961 67.4192 22.4489V26H66.5669V22.2642C66.5669 21.9541 66.4663 21.7043 66.2651 21.5149C66.0639 21.3232 65.8046 21.2273 65.4874 21.2273C65.2696 21.2273 65.066 21.2853 64.8766 21.4013C64.6896 21.5173 64.5381 21.6783 64.4221 21.8842C64.3084 22.0878 64.2516 22.3234 64.2516 22.5909V26H63.4135ZM73.71 26.1278C73.3644 26.1278 73.0507 26.0627 72.769 25.9325C72.4873 25.8 72.2636 25.6094 72.0978 25.3608C71.9321 25.1098 71.8493 24.8068 71.8493 24.4517C71.8493 24.1392 71.9108 23.8859 72.0339 23.6918C72.157 23.4953 72.3216 23.3414 72.5275 23.2301C72.7335 23.1188 72.9608 23.036 73.2093 22.9815C73.4603 22.9247 73.7124 22.8797 73.9657 22.8466C74.2972 22.804 74.5659 22.772 74.7718 22.7507C74.9802 22.727 75.1317 22.688 75.2264 22.6335C75.3234 22.5791 75.372 22.4844 75.372 22.3494V22.321C75.372 21.9706 75.2761 21.6984 75.0843 21.5043C74.8949 21.3101 74.6073 21.2131 74.2214 21.2131C73.8213 21.2131 73.5076 21.3007 73.2804 21.4759C73.0531 21.651 72.8933 21.8381 72.801 22.0369L72.0055 21.7528C72.1475 21.4214 72.3369 21.1634 72.5737 20.9787C72.8128 20.7917 73.0732 20.6615 73.3549 20.5881C73.639 20.5123 73.9184 20.4744 74.193 20.4744C74.3682 20.4744 74.5694 20.4957 74.7967 20.5384C75.0263 20.5786 75.2477 20.6626 75.4608 20.7905C75.6762 20.9183 75.8549 21.1113 75.997 21.3693C76.139 21.6274 76.21 21.973 76.21 22.4062V26H75.372V25.2614H75.3294C75.2725 25.3797 75.1779 25.5064 75.0453 25.6413C74.9127 25.7763 74.7363 25.8911 74.5162 25.9858C74.296 26.0805 74.0273 26.1278 73.71 26.1278ZM73.8379 25.375C74.1693 25.375 74.4487 25.3099 74.676 25.1797C74.9056 25.0495 75.0784 24.8814 75.1944 24.6754C75.3128 24.4695 75.372 24.2528 75.372 24.0256V23.2585C75.3365 23.3011 75.2583 23.3402 75.1376 23.3757C75.0192 23.4089 74.8819 23.4384 74.7257 23.4645C74.5718 23.4882 74.4215 23.5095 74.2747 23.5284C74.1303 23.545 74.0131 23.5592 73.9231 23.571C73.7053 23.5994 73.5017 23.6456 73.3123 23.7095C73.1253 23.7711 72.9738 23.8646 72.8578 23.9901C72.7441 24.1132 72.6873 24.2812 72.6873 24.4943C72.6873 24.7855 72.795 25.0057 73.0105 25.1548C73.2283 25.3016 73.5041 25.375 73.8379 25.375ZM79.9414 28.1591C79.5366 28.1591 79.1886 28.107 78.8974 28.0028C78.6062 27.901 78.3635 27.7661 78.1694 27.598C77.9776 27.4323 77.8249 27.2547 77.7113 27.0653L78.3789 26.5966C78.4547 26.696 78.5505 26.8097 78.6665 26.9375C78.7826 27.0677 78.9412 27.1802 79.1424 27.2749C79.346 27.3719 79.6123 27.4205 79.9414 27.4205C80.3817 27.4205 80.7451 27.3139 81.0316 27.1009C81.3181 26.8878 81.4613 26.554 81.4613 26.0994V24.9915H81.3903C81.3287 25.0909 81.2411 25.214 81.1275 25.3608C81.0162 25.5052 80.8552 25.6342 80.6445 25.7479C80.4362 25.8591 80.1545 25.9148 79.7994 25.9148C79.359 25.9148 78.9637 25.8106 78.6133 25.6023C78.2653 25.3939 77.9895 25.0909 77.7859 24.6932C77.5846 24.2955 77.484 23.8125 77.484 23.2443C77.484 22.6856 77.5823 22.1991 77.7788 21.7848C77.9753 21.3681 78.2487 21.0462 78.5991 20.8189C78.9495 20.5893 79.3543 20.4744 79.8136 20.4744C80.1687 20.4744 80.4504 20.5336 80.6587 20.652C80.8694 20.768 81.0304 20.9006 81.1417 21.0497C81.2553 21.1965 81.3429 21.3172 81.4045 21.4119H81.4897V20.5455H82.2994V26.1562C82.2994 26.625 82.1928 27.0062 81.9798 27.2997C81.7691 27.5956 81.485 27.8123 81.1275 27.9496C80.7724 28.0893 80.377 28.1591 79.9414 28.1591ZM79.913 25.1619C80.2492 25.1619 80.5333 25.085 80.7653 24.9311C80.9973 24.7772 81.1737 24.5559 81.2944 24.267C81.4151 23.9782 81.4755 23.6326 81.4755 23.2301C81.4755 22.8371 81.4163 22.4903 81.2979 22.1896C81.1796 21.889 81.0044 21.6534 80.7724 21.483C80.5404 21.3125 80.2539 21.2273 79.913 21.2273C79.5579 21.2273 79.262 21.3172 79.0252 21.4972C78.7908 21.6771 78.6145 21.9186 78.4961 22.2216C78.3801 22.5246 78.3221 22.8608 78.3221 23.2301C78.3221 23.6089 78.3813 23.9439 78.4996 24.2351C78.6204 24.5239 78.7979 24.7512 79.0323 24.9169C79.2691 25.0803 79.5626 25.1619 79.913 25.1619ZM86.1204 26.1136C85.5948 26.1136 85.1415 25.9976 84.7603 25.7656C84.3815 25.5312 84.0891 25.2045 83.8832 24.7855C83.6796 24.3641 83.5778 23.8741 83.5778 23.3153C83.5778 22.7566 83.6796 22.2642 83.8832 21.8381C84.0891 21.4096 84.3756 21.0758 84.7425 20.8366C85.1119 20.5952 85.5427 20.4744 86.0352 20.4744C86.3192 20.4744 86.5998 20.5218 86.8768 20.6165C87.1538 20.7112 87.4059 20.8651 87.6332 21.0781C87.8604 21.2888 88.0415 21.5682 88.1765 21.9162C88.3114 22.2642 88.3789 22.6927 88.3789 23.2017V23.5568H84.1744V22.8324H87.5266C87.5266 22.5246 87.4651 22.25 87.342 22.0085C87.2212 21.767 87.0484 21.5765 86.8235 21.4368C86.601 21.2971 86.3382 21.2273 86.0352 21.2273C85.7013 21.2273 85.4125 21.3101 85.1687 21.4759C84.9272 21.6392 84.7414 21.8523 84.6112 22.1151C84.4809 22.3778 84.4158 22.6596 84.4158 22.9602V23.4432C84.4158 23.8551 84.4869 24.2043 84.6289 24.4908C84.7733 24.7749 84.9734 24.9915 85.229 25.1406C85.4847 25.2874 85.7818 25.3608 86.1204 25.3608C86.3406 25.3608 86.5394 25.33 86.717 25.2685C86.8969 25.2045 87.052 25.1098 87.1822 24.9844C87.3124 24.8565 87.413 24.6979 87.484 24.5085L88.2937 24.7358C88.2085 25.0104 88.0652 25.2519 87.864 25.4602C87.6628 25.6662 87.4142 25.8272 87.1183 25.9432C86.8223 26.0568 86.4897 26.1136 86.1204 26.1136Z" fill="white"/>
</g>
<defs>
<clipPath id="clip0_1059_9">
<rect width="52" height="52" fill="white" transform="translate(48 5)"/>
</clipPath>
</defs>
</svg>
