<svg width="1083" height="450" viewBox="0 0 1083 450" fill="none" xmlns="http://www.w3.org/2000/svg">
<g id="code_thinking_edited" clip-path="url(#clip0_2_60)">
<g id="person">
<path id="Vector" d="M87.591 375.644L62.772 373.989L71.045 411.218L99.173 399.636L87.591 375.644Z" fill="#FFB9B9"/>
<path id="Vector_2" d="M315.1 306.15L257.189 249.893L224.096 275.54L158.739 354.134L166.185 365.716L245.606 311.941L299.381 382.262L350.674 356.616L315.1 306.15Z" fill="#2F2E41"/>
<path id="Vector_3" opacity="0.1" d="M315.1 306.15L257.189 249.893L224.096 275.54L158.739 354.134L166.185 365.716L245.606 311.941L299.381 382.262L350.674 356.616L315.1 306.15Z" fill="black"/>
<path id="Vector_4" d="M320.064 343.379L312.618 349.171L252.225 328.488L238.161 322.697L210.032 328.488C210.032 328.488 210.032 305.323 236.506 306.151L263.807 312.769L296.072 315.251L320.064 343.379Z" fill="#FFB9B9"/>
<path id="Vector_5" d="M373.839 404.6L355.638 416.182H334.128L234.024 378.953L87.591 405.427L83.454 373.989L217.478 315.251L334.956 354.134L373.839 404.6Z" fill="#2F2E41"/>
<path id="Vector_6" d="M256.361 257.34L243.952 259.821L241.248 256.667C239.107 254.169 237.75 251.095 237.348 247.83C236.946 244.565 237.517 241.254 238.988 238.312L273.735 192.81C273.735 192.81 283.663 170.472 299.381 179.573C315.1 188.673 286.144 203.565 286.144 203.565L268.771 230.866L270.426 244.93L256.361 257.34Z" fill="#FFB9B9"/>
<path id="Vector_7" d="M334.956 203.565C352.775 203.565 367.22 189.119 367.22 171.3C367.22 153.48 352.775 139.035 334.956 139.035C317.136 139.035 302.691 153.48 302.691 171.3C302.691 189.119 317.136 203.565 334.956 203.565Z" fill="#FFB9B9"/>
<path id="Vector_8" d="M320.478 194.878L335.369 230.452L370.943 215.561C370.943 215.561 359.361 187.432 359.361 186.605C359.361 185.778 320.478 194.878 320.478 194.878Z" fill="#FFB9B9"/>
<path id="Vector_9" d="M418.439 300.12C418.439 319.592 415.37 338.943 409.347 357.46L406.931 364.889L395.349 417.837L382.939 421.146L373.839 409.564L355.638 396.327L342.401 374.817L331.051 355.905L327.51 349.998L315.1 287.95L267.944 261.476L252.225 258.994L255.534 249.894L269.598 230.866L283.663 229.211L287.799 225.902L291.108 227.556L304.345 220.111L308.482 221.765L332.672 224.016L347.365 220.938L368.495 209.596L377.148 211.01L406.931 235.83C414.545 256.409 418.441 278.177 418.439 300.12V300.12Z" fill="#24615E"/>
<path id="Vector_10" d="M70.3902 388.455C70.3902 388.455 77.8002 375.896 74.6704 374.43C71.5406 372.964 58.2488 367.119 58.2488 367.119L38.7567 360.659C38.7567 360.659 10.6307 318.858 10.0133 355.209C9.39592 391.559 30.4925 400.297 30.4925 400.297C30.4925 400.297 49.308 440.79 59.9662 434.333C70.6244 427.876 81.2895 405.957 81.2895 405.957C81.2895 405.957 62.0695 395.625 70.3902 388.455Z" fill="#2F2E41"/>
<path id="Vector_11" opacity="0.1" d="M409.413 292.913L377.975 313.596L331.051 355.904L327.51 349.997L317.582 300.359H320.064L345.711 253.203L409.413 292.913Z" fill="black"/>
<path id="Vector_12" d="M345.711 248.239L320.064 295.395H310.964L305.173 311.941L291.936 315.251L327.51 354.134L377.975 308.632L409.413 287.949L345.711 248.239Z" fill="#24615E"/>
<path id="Vector_13" d="M309.86 147.309L306.364 148.654C305.826 148.29 305.367 147.822 305.012 147.279C304.658 146.735 304.415 146.125 304.299 145.486C304.183 144.848 304.195 144.192 304.336 143.558C304.476 142.924 304.741 142.324 305.117 141.794L298.656 141.492C302.803 135.969 308.076 131.389 314.125 128.056C320.175 124.723 326.863 122.713 333.747 122.158C340.632 121.603 347.555 122.516 354.06 124.837C360.565 127.158 366.503 130.834 371.482 135.622C371.776 134.609 374.982 136.58 376.291 138.578C376.731 136.93 379.737 144.898 380.8 150.531C381.293 148.655 383.185 151.683 381.527 154.588C382.578 154.435 383.052 157.123 382.239 158.62C383.388 158.08 383.195 161.289 381.948 163.434C383.589 163.288 369.013 185.909 363.112 199.13C361.398 191.256 359.471 182.965 353.946 177.1C353.007 176.103 351.978 175.195 350.951 174.289L345.398 169.387C338.94 163.686 333.065 156.651 324.462 154.52C318.55 153.056 314.812 152.726 318.034 146.064C315.123 147.278 312.404 149.085 309.467 150.213C309.507 149.282 309.917 148.241 309.86 147.309Z" fill="#2F2E41"/>
</g>
<g id="computer">
<g id="components">
<path id="Vector_14" d="M1026.23 5.36232H766.062V0H648.091V5.36232H386.849C384.538 5.36232 382.25 5.81751 380.114 6.70192C377.979 7.58633 376.039 8.88263 374.405 10.5168C372.771 12.151 371.475 14.091 370.59 16.2262C369.706 18.3613 369.251 20.6497 369.251 22.9608V379.213C369.251 381.524 369.706 383.813 370.59 385.948C371.475 388.083 372.771 390.023 374.405 391.657C376.039 393.291 377.979 394.588 380.114 395.472C382.25 396.356 384.538 396.812 386.849 396.812H1026.23C1030.9 396.812 1035.38 394.957 1038.68 391.657C1041.98 388.357 1043.83 383.88 1043.83 379.213V22.9608C1043.83 20.6497 1043.38 18.3613 1042.49 16.2262C1041.61 14.091 1040.31 12.151 1038.68 10.5168C1037.04 8.88263 1035.1 7.58633 1032.97 6.70192C1030.83 5.81751 1028.54 5.36232 1026.23 5.36232Z" fill="#212529"/>
<path id="Vector_15" d="M1061.45 383.942H1000.22V379.53C1000.22 379.416 1000.19 379.302 1000.15 379.196C1000.11 379.09 1000.04 378.993 999.961 378.912C999.879 378.831 999.783 378.766 999.677 378.722C999.571 378.678 999.457 378.656 999.342 378.656H978.349C978.234 378.656 978.121 378.678 978.014 378.722C977.908 378.766 977.812 378.831 977.731 378.912C977.649 378.993 977.585 379.09 977.541 379.196C977.497 379.302 977.475 379.416 977.475 379.53V383.942H964.354V379.53C964.354 379.416 964.331 379.302 964.287 379.196C964.243 379.09 964.179 378.993 964.098 378.912C964.016 378.831 963.92 378.766 963.814 378.722C963.708 378.678 963.594 378.656 963.479 378.656H942.486C942.371 378.656 942.258 378.678 942.152 378.722C942.045 378.766 941.949 378.831 941.868 378.912C941.786 378.993 941.722 379.09 941.678 379.196C941.634 379.302 941.612 379.416 941.612 379.53V383.942H928.491V379.53C928.491 379.416 928.468 379.302 928.424 379.196C928.381 379.09 928.316 378.993 928.235 378.912C928.154 378.831 928.057 378.766 927.951 378.722C927.845 378.678 927.731 378.656 927.616 378.656H906.623C906.508 378.656 906.395 378.678 906.289 378.722C906.182 378.766 906.086 378.831 906.005 378.912C905.924 378.993 905.859 379.09 905.815 379.196C905.771 379.302 905.749 379.416 905.749 379.53V383.942H892.628V379.53C892.628 379.416 892.606 379.302 892.562 379.196C892.518 379.09 892.453 378.993 892.372 378.912C892.291 378.831 892.194 378.766 892.088 378.722C891.982 378.678 891.868 378.656 891.753 378.656H870.761C870.646 378.656 870.532 378.678 870.426 378.722C870.32 378.766 870.223 378.831 870.142 378.912C870.061 378.993 869.996 379.09 869.952 379.196C869.908 379.302 869.886 379.416 869.886 379.53V383.942H856.765V379.53C856.765 379.416 856.743 379.302 856.699 379.196C856.655 379.09 856.59 378.993 856.509 378.912C856.428 378.831 856.331 378.766 856.225 378.722C856.119 378.678 856.005 378.656 855.891 378.656H834.898C834.783 378.656 834.669 378.678 834.563 378.722C834.457 378.766 834.36 378.831 834.279 378.912C834.198 378.993 834.133 379.09 834.09 379.196C834.046 379.302 834.023 379.416 834.023 379.53V383.942H820.902V379.53C820.902 379.416 820.88 379.302 820.836 379.196C820.792 379.09 820.727 378.993 820.646 378.912C820.565 378.831 820.469 378.766 820.362 378.722C820.256 378.678 820.143 378.656 820.028 378.656H799.035C798.92 378.656 798.806 378.678 798.7 378.722C798.594 378.766 798.497 378.831 798.416 378.912C798.335 378.993 798.271 379.09 798.227 379.196C798.183 379.302 798.16 379.416 798.16 379.53V383.942H785.04V379.53C785.04 379.416 785.017 379.302 784.973 379.196C784.929 379.09 784.865 378.993 784.783 378.912C784.702 378.831 784.606 378.766 784.5 378.722C784.393 378.678 784.28 378.656 784.165 378.656H619.72C619.605 378.656 619.492 378.678 619.386 378.722C619.279 378.766 619.183 378.831 619.102 378.912C619.021 378.993 618.956 379.09 618.912 379.196C618.868 379.302 618.846 379.416 618.846 379.53V383.942H605.725V379.53C605.725 379.416 605.702 379.302 605.658 379.196C605.615 379.09 605.55 378.993 605.469 378.912C605.388 378.831 605.291 378.766 605.185 378.722C605.079 378.678 604.965 378.656 604.85 378.656H583.858C583.743 378.656 583.629 378.678 583.523 378.722C583.417 378.766 583.32 378.831 583.239 378.912C583.158 378.993 583.093 379.09 583.049 379.196C583.005 379.302 582.983 379.416 582.983 379.53V383.942H569.862V379.53C569.862 379.416 569.84 379.302 569.796 379.196C569.752 379.09 569.687 378.993 569.606 378.912C569.525 378.831 569.428 378.766 569.322 378.722C569.216 378.678 569.102 378.656 568.987 378.656H547.995C547.88 378.656 547.766 378.678 547.66 378.722C547.554 378.766 547.457 378.831 547.376 378.912C547.295 378.993 547.23 379.09 547.186 379.196C547.142 379.302 547.12 379.416 547.12 379.53V383.942H533.999V379.53C533.999 379.416 533.977 379.302 533.933 379.196C533.889 379.09 533.824 378.993 533.743 378.912C533.662 378.831 533.565 378.766 533.459 378.722C533.353 378.678 533.239 378.656 533.125 378.656H512.132C512.017 378.656 511.903 378.678 511.797 378.722C511.691 378.766 511.594 378.831 511.513 378.912C511.432 378.993 511.368 379.09 511.324 379.196C511.28 379.302 511.257 379.416 511.257 379.53V383.942H498.136V379.53C498.136 379.416 498.114 379.302 498.07 379.196C498.026 379.09 497.961 378.993 497.88 378.912C497.799 378.831 497.703 378.766 497.596 378.722C497.49 378.678 497.377 378.656 497.262 378.656H476.269C476.154 378.656 476.04 378.678 475.934 378.722C475.828 378.766 475.732 378.831 475.65 378.912C475.569 378.993 475.505 379.09 475.461 379.196C475.417 379.302 475.394 379.416 475.394 379.53V383.942H462.274V379.53C462.274 379.416 462.251 379.302 462.207 379.196C462.163 379.09 462.099 378.993 462.017 378.912C461.936 378.831 461.84 378.766 461.734 378.722C461.627 378.678 461.514 378.656 461.399 378.656H440.406C440.291 378.656 440.177 378.678 440.071 378.722C439.965 378.766 439.869 378.831 439.787 378.912C439.706 378.993 439.642 379.09 439.598 379.196C439.554 379.302 439.531 379.416 439.531 379.53V383.942H426.411V379.53C426.411 379.416 426.388 379.302 426.344 379.196C426.3 379.09 426.236 378.993 426.154 378.912C426.073 378.831 425.977 378.766 425.871 378.722C425.765 378.678 425.651 378.656 425.536 378.656H404.543C404.428 378.656 404.314 378.678 404.208 378.722C404.102 378.766 404.006 378.831 403.925 378.912C403.843 378.993 403.779 379.09 403.735 379.196C403.691 379.302 403.668 379.416 403.668 379.53V383.942H363.432C357.864 383.942 352.525 386.154 348.588 390.091C344.651 394.028 342.439 399.367 342.439 404.935V414.427C342.439 419.995 344.651 425.335 348.588 429.272C352.525 433.209 357.864 435.42 363.432 435.42H1061.45C1067.01 435.42 1072.35 433.209 1076.29 429.272C1080.23 425.335 1082.44 419.995 1082.44 414.427V404.935C1082.44 399.367 1080.23 394.028 1076.29 390.091C1072.35 386.154 1067.01 383.942 1061.45 383.942Z" fill="#212529"/>
<path id="Vector_16" d="M706.004 26.8116C709.558 26.8116 712.439 23.9306 712.439 20.3768C712.439 16.823 709.558 13.942 706.004 13.942C702.45 13.942 699.569 16.823 699.569 20.3768C699.569 23.9306 702.45 26.8116 706.004 26.8116Z" fill="#24615E"/>
</g>
<g id="window">
<g id="body">
<path id="Vector_17" d="M1020.39 38H393V391.913H1020.39V38Z" fill="#F2F2F2"/>
<g id="business_plan" clip-path="url(#clip1_2_60)">
<path id="Vector_18" opacity="0.1" d="M757.579 355C824.106 355 878.036 351.24 878.036 346.602C878.036 341.964 824.106 338.204 757.579 338.204C691.052 338.204 637.121 341.964 637.121 346.602C637.121 351.24 691.052 355 757.579 355Z" fill="#24615E"/>
<path id="Vector_19" opacity="0.1" d="M626.526 147.734C619.02 156.565 617.121 167.76 617.018 178.493C616.945 186.062 617.974 194.272 624.261 199.854C632.536 207.198 648.423 208.646 652.523 218.03C656.159 226.369 647.699 234.759 639.572 240.644C631.445 246.53 622.113 253.736 623.632 262.5C624.594 268.096 629.871 272.489 635.134 276.176C645.14 283.203 656.388 289.349 669.068 292.34C692.073 297.759 716.92 292.149 738.476 283.655C751.746 278.427 767.153 272.011 780.33 277.387C783.809 278.807 786.762 280.951 789.97 282.728C799.296 287.863 810.687 289.754 821.773 291.359C838.021 293.72 855.097 295.69 870.752 291.432C886.407 287.174 899.937 274.72 897.541 261.437C895.281 248.924 880.895 240.768 869.432 232.221C865.388 229.205 861.272 225.208 862.278 220.821C863.078 217.342 866.842 214.919 870.198 212.67C887.862 200.77 900.843 184.342 906.811 166.329C909.63 157.83 910.648 148.038 904.359 140.871C899.286 135.089 890.591 132.312 882.322 130.027C866.977 125.786 851.249 122.203 835.11 121.236C818.97 120.269 802.297 122.113 787.97 128.231C781.099 131.168 774.871 135.036 767.933 137.863C748.234 145.89 725.022 144.811 703.052 143.543C695.202 143.091 686.997 142.287 680.181 138.841C674.309 135.868 670.953 133.737 663.682 133.406C649.43 132.756 634.687 138.116 626.526 147.734Z" fill="#24615E"/>
<g id="painting">
<path id="Vector_20" d="M732.907 208.23L732.6 208.868L730.606 212.986L709.69 256.148L674.199 343.547L669.126 343.586L704.637 256.148L728.836 206.204L730.606 207.083L732.6 208.075L732.907 208.23Z" fill="#212529"/>
<path id="Vector_21" d="M795.176 343.586L791.001 343.547L755.507 256.148L735.142 214.118L732.6 208.868L732.289 208.23L732.6 208.075L735.142 206.811L736.364 206.204L760.199 256.148L795.176 343.586Z" fill="#212529"/>
<path id="Vector_22" d="M735.145 194.464H730.606V343.586H735.145V194.464Z" fill="#212529"/>
<path id="Vector_23" d="M732.356 169.896C730.825 169.898 729.357 170.51 728.275 171.598C727.192 172.686 726.583 174.161 726.581 175.7V177.774C726.565 178.547 726.701 179.316 726.984 180.035C727.267 180.755 727.69 181.41 728.228 181.963C728.766 182.515 729.408 182.955 730.117 183.254C730.827 183.554 731.588 183.709 732.358 183.709C733.127 183.709 733.889 183.554 734.598 183.254C735.307 182.955 735.95 182.515 736.488 181.963C737.026 181.41 737.449 180.755 737.731 180.035C738.014 179.316 738.151 178.547 738.134 177.774V175.7C738.132 174.161 737.522 172.686 736.439 171.598C735.356 170.51 733.888 169.898 732.356 169.896ZM736.688 177.766C736.688 178.921 736.232 180.029 735.419 180.846C734.606 181.663 733.503 182.122 732.354 182.122C731.204 182.122 730.101 181.663 729.288 180.846C728.476 180.029 728.019 178.921 728.019 177.766V175.692C728.019 174.536 728.476 173.428 729.288 172.611C730.101 171.794 731.204 171.335 732.354 171.335C733.503 171.335 734.606 171.794 735.419 172.611C736.232 173.428 736.688 174.536 736.688 175.692V177.766Z" fill="#212529"/>
<path id="Vector_24" opacity="0.1" d="M760.199 256.148H755.507L735.142 214.118V256.148H730.606V212.986L709.69 256.148H704.637L728.835 206.204L730.606 207.083V194.464H735.142V206.811L736.364 206.204L760.199 256.148Z" fill="black"/>
<path id="Vector_25" opacity="0.1" d="M738.134 175.908V177.774C738.151 178.547 738.014 179.316 737.731 180.035C737.449 180.755 737.026 181.41 736.488 181.963C735.95 182.515 735.307 182.955 734.598 183.254C733.889 183.554 733.127 183.709 732.358 183.709C731.588 183.709 730.827 183.554 730.117 183.254C729.408 182.955 728.766 182.515 728.228 181.963C727.69 181.41 727.267 180.755 726.984 180.035C726.701 179.316 726.565 178.547 726.581 177.774V175.908H728.024V177.774C728.024 178.93 728.481 180.038 729.294 180.855C730.107 181.672 731.21 182.131 732.359 182.131C733.509 182.131 734.611 181.672 735.424 180.855C736.237 180.038 736.694 178.93 736.694 177.774V175.908H738.134Z" fill="black"/>
<path id="Vector_26" d="M819.624 176.324H645.092V255.527H819.624V176.324Z" fill="#212529"/>
<path id="Vector_27" d="M816.117 178.811H648.188V250.965H816.117V178.811Z" fill="white"/>
</g>
<g id="items_graph">
<path id="Vector_28" d="M687.659 239.484H679.719V243.118H687.659V239.484Z" fill="#24615E"/>
<path id="Vector_29" d="M701.644 239.484H693.705V243.118H701.644V239.484Z" fill="#24615E"/>
<path id="Vector_30" d="M715.627 239.484H707.688V243.118H715.627V239.484Z" fill="#24615E"/>
<path id="Vector_31" d="M729.613 239.484H721.673V243.118H729.613V239.484Z" fill="#24615E"/>
<path id="Vector_32" d="M743.596 239.484H735.656V243.118H743.596V239.484Z" fill="#24615E"/>
<path id="Vector_33" d="M757.582 239.484H749.642V243.118H757.582V239.484Z" fill="#24615E"/>
<path id="Vector_34" d="M771.565 239.484H763.625V243.118H771.565V239.484Z" fill="#24615E"/>
<path id="Vector_35" d="M785.55 239.484H777.611V243.118H785.55V239.484Z" fill="#24615E"/>
<path id="Vector_36" d="M799.533 239.484H791.594V243.118H799.533V239.484Z" fill="#24615E"/>
<path id="Vector_37" d="M687.659 213.07H679.719V235.847H687.659V213.07Z" fill="#24615E"/>
<path id="Vector_38" d="M701.644 202.53H693.705V235.85H701.644V202.53Z" fill="#24615E"/>
<path id="Vector_39" d="M715.627 193.685H707.688V235.85H715.627V193.685Z" fill="#24615E"/>
<path id="Vector_40" d="M729.613 198.269H721.673V235.847H729.613V198.269Z" fill="#24615E"/>
<path id="Vector_41" d="M743.596 190.293H735.656V235.85H743.596V190.293Z" fill="#24615E"/>
<path id="Vector_42" d="M757.582 207.738H749.642V235.847H757.582V207.738Z" fill="#24615E"/>
<path id="Vector_43" d="M771.565 207.738H763.625V235.847H771.565V207.738Z" fill="#24615E"/>
<path id="Vector_44" d="M785.55 207.738H777.611V235.847H785.55V207.738Z" fill="#24615E"/>
<path id="Vector_45" d="M799.533 207.738H791.594V235.847H799.533V207.738Z" fill="#24615E"/>
</g>
<g id="person_2">
<path id="Vector_46" d="M790.682 207.676L722.697 211.881V213.213L792.131 210.445L790.682 207.676Z" fill="#212529"/>
<path id="Vector_47" d="M871.173 235.434C871.173 235.434 874.731 229.554 873.785 220.33C872.84 211.105 869.42 196.175 869.42 196.175C869.42 196.175 870.905 187.811 862.851 186.636C862.851 186.636 857.845 185.7 854.265 183.438C852.934 182.594 851.801 181.574 851.189 180.346C851.189 180.346 851.141 180.484 851.049 180.737C850.97 180.61 850.897 180.48 850.831 180.346C850.831 180.346 850.811 180.397 850.781 180.487L849.413 178.345C849.413 178.345 849.226 178.544 848.91 178.873C848.36 178.08 847.891 177.232 847.511 176.344C847.851 176.261 848.185 176.154 848.51 176.023C848.82 175.92 849.1 175.74 849.324 175.5C849.52 175.227 849.646 174.91 849.693 174.576C849.911 173.508 849.973 172.413 849.877 171.327C849.802 170.484 849.631 169.64 849.69 168.783C849.752 167.87 850.073 166.987 850.118 166.071C850.196 164.458 849.399 162.923 848.415 161.644C847.827 160.883 847.167 160.174 846.659 159.359C846.217 158.651 845.895 157.87 845.42 157.181C844.301 155.579 842.436 154.635 840.523 154.3C838.61 153.966 836.641 154.174 834.725 154.491C833.048 154.772 831.37 155.18 829.692 155.278C828.226 155.362 827.032 154.865 825.69 155.84C825.245 156.17 824.876 156.591 824.607 157.076C824.337 157.561 824.175 158.098 824.129 158.651C824.107 158.839 824.122 159.03 824.171 159.213C824.25 159.403 824.344 159.586 824.451 159.761C825.046 160.942 824.14 162.344 824.258 163.662C824.329 164.245 824.595 164.787 825.011 165.199C825.427 165.611 825.97 165.87 826.551 165.933C826.498 166.046 826.439 166.155 826.389 166.27C825.646 167.957 825.312 169.796 825.414 171.638C825.516 173.479 826.051 175.27 826.976 176.863C827.901 178.456 829.188 179.806 830.733 180.802C832.277 181.798 834.035 182.411 835.861 182.592L836.381 182.994C837.556 183.907 838.876 185 840.148 186.189L840.123 186.209L839.916 186.091C839.529 186.399 839.121 186.68 838.697 186.934C837.519 187.659 835.62 188.601 833.484 188.708C833.484 188.708 829.658 190.745 828.341 197.465C826.45 199.169 822.404 202.243 817.057 203.044C809.542 204.169 800.277 204.537 800.277 204.537C800.277 204.537 800.202 204.672 800.095 204.919L799.24 204.762C799.24 204.762 799.24 204.866 799.203 205.043L798.868 204.891C796.214 203.725 790.911 202.024 790.24 206.709C789.34 212.994 795.302 212.272 795.302 212.272C796.481 211.821 797.689 211.452 798.918 211.167L799.251 211.102C799.307 211.266 799.386 211.422 799.486 211.563H800.297C800.578 212.149 800.919 212.705 801.312 213.222L820.211 212.806C820.211 212.806 823.441 212.097 826.422 212.547C825.122 222.317 823.587 233.031 823.587 233.031C823.587 233.031 820.371 249.998 822.622 251.772C823.928 251.334 825.26 250.975 826.61 250.698C826.63 251.747 826.741 252.792 826.94 253.821L828.38 263.295C828.38 263.295 828.939 272.975 830.81 278.754L832.46 286.652L833.842 292.621L834.619 302.754C835.687 307.046 836.459 311.407 836.929 315.806C837.659 322.613 841.622 333.614 842.15 335.062C840.797 336.987 838.017 340.253 834.53 340.59C829.552 341.073 829.432 344.089 832.91 345.174C836.389 346.259 843.711 345.174 843.711 345.174L854.036 342.608C853.725 344.522 853.563 346.034 853.79 346.197C854.45 346.681 864.47 349.289 864.831 345.112C864.859 344.767 864.884 344.433 864.906 344.109C865.055 341.433 864.7 338.754 863.858 336.211C863.776 335.961 863.704 335.708 863.639 335.455C863.788 335.288 863.924 335.111 864.048 334.924C864.048 334.924 864.769 323.648 865.309 319.606C865.351 319.283 865.379 318.889 865.393 318.445C865.642 313.6 863.883 300.854 863.883 300.854C863.883 300.854 861.71 292.562 861.791 288.751C861.803 288.434 861.857 288.121 861.95 287.818C861.95 287.818 861.95 287.742 861.922 287.616C861.922 287.562 861.947 287.506 861.964 287.455C861.964 287.455 860.862 279.867 861.016 275.353C861.038 274.68 861.131 274.011 861.296 273.357C861.471 272.5 861.56 271.627 861.562 270.752C861.701 267.66 861.539 262.32 861.315 257.312C861.341 257.227 861.366 257.143 861.385 257.045C861.43 256.646 861.384 256.242 861.248 255.864C861.232 255.541 861.218 255.221 861.201 254.903C861.293 254.585 861.369 254.248 861.436 253.9H861.581V253.919C861.581 253.919 870.983 253.467 873.145 250.934C873.145 250.934 870.961 244.113 869.75 238.568L871.173 235.434ZM830.656 214.217L830.508 214.163C830.746 213.32 831.028 212.339 831.347 211.31C831.076 212.423 830.841 213.435 830.656 214.217ZM840.198 186.254L840.24 186.293L840.196 186.268L840.198 186.254ZM851.944 332.552C851.438 330.801 849.427 323.662 849.491 320.258C849.505 319.962 849.557 319.669 849.645 319.387C849.832 318.77 849.926 318.129 849.925 317.484C850.126 313.931 848.773 307.565 848.773 307.565C848.773 307.565 845.744 298.979 845.976 292.16C845.976 291.989 845.996 291.818 846.007 291.646C846.057 291 846.096 290.3 846.124 289.561V289.547C846.239 286.913 846.214 283.743 846.138 280.786L846.122 280.676C846.018 276.761 845.825 273.237 845.744 271.843C846.024 273.858 847.813 286.401 848.585 288.453C848.585 288.453 849.008 294.24 850.926 299.134L853.029 311.854C853.029 311.854 853.569 326.992 854.467 331.273C854.869 333.178 855.21 334.463 855.465 335.3C855.101 337.006 854.514 339.865 854.12 342.231C853.888 340.688 853.071 334.809 851.947 332.552H851.944Z" fill="url(#paint0_linear_2_60)"/>
<path id="Vector_48" d="M842.953 332.942C842.953 332.942 839.443 339.337 834.507 339.814C829.571 340.292 829.454 343.28 832.902 344.356C836.35 345.433 843.607 344.356 843.607 344.356L853.955 341.787C853.955 341.787 852.705 331.506 851.041 330.969C849.377 330.432 842.953 332.942 842.953 332.942Z" fill="#24615E"/>
<path id="Vector_49" d="M855.566 333.06C855.566 333.06 852.948 344.893 853.608 345.374C854.268 345.854 864.193 348.42 864.551 344.297C864.579 343.951 864.604 343.619 864.627 343.302C864.773 340.651 864.42 337.995 863.586 335.475C863.307 334.632 863.111 333.729 863.184 333.06C863.349 331.388 855.566 333.06 855.566 333.06Z" fill="#24615E"/>
<path id="Vector_50" d="M852.319 183.252C852.319 183.252 844.29 203.073 845.719 196.707C846.664 192.491 840.554 186.889 836.328 183.598C834.177 181.911 832.516 180.841 832.516 180.841C832.516 180.841 847.59 163.179 846.521 170.798C846.228 172.885 846.513 175.013 847.344 176.948C849.008 180.922 852.319 183.252 852.319 183.252Z" fill="#FFB9B9"/>
<path id="Vector_51" d="M801.032 211.409C800.607 211.299 799.914 211.369 799.195 211.524C797.977 211.807 796.781 212.172 795.612 212.617C795.612 212.617 789.703 213.334 790.595 207.106C791.258 202.463 796.513 204.149 799.144 205.301C800.039 205.698 800.632 206.029 800.632 206.029L801.032 211.409Z" fill="#FFB9B9"/>
<path id="Vector_52" opacity="0.1" d="M801.032 211.409C800.607 211.299 799.914 211.369 799.195 211.524C798.552 209.894 799.041 206.029 799.144 205.301C800.039 205.698 800.632 206.029 800.632 206.029L801.032 211.409Z" fill="black"/>
<path id="Vector_53" d="M801.057 205.462L799.511 205.181C799.511 205.181 798.719 210.521 799.754 211.926H801.533L801.057 205.462Z" fill="#CBCDDA"/>
<path id="Vector_54" d="M832.074 215.206C832.074 215.206 827.348 212.364 826.783 215.951C826.218 219.537 825.474 225.664 825.474 225.664L824.166 233.464L822.471 249.091L822.709 251.75C822.709 251.75 827.742 250.046 828.923 250.645C830.103 251.244 831.065 244.071 831.065 244.071L833.022 236.659L833.319 220.942L832.074 215.206Z" fill="#24615E"/>
<path id="Vector_55" opacity="0.1" d="M832.074 215.206C832.074 215.206 827.348 212.364 826.783 215.951C826.218 219.537 825.474 225.664 825.474 225.664L824.166 233.464L822.471 249.091L822.709 251.75C822.709 251.75 827.742 250.046 828.923 250.645C830.103 251.244 831.065 244.071 831.065 244.071L833.022 236.659L833.319 220.942L832.074 215.206Z" fill="#212529"/>
<path id="Vector_56" d="M829.527 196.796C829.527 196.796 824.621 202.356 817.174 203.474C809.727 204.593 800.537 204.956 800.537 204.956C800.537 204.956 798.219 209.124 801.564 213.562L820.301 213.146C820.301 213.146 824.448 212.241 827.661 213.146L829.527 196.796Z" fill="#212529"/>
<path id="Vector_57" opacity="0.05" d="M829.527 196.796C829.527 196.796 824.621 202.356 817.174 203.474C809.727 204.593 800.537 204.956 800.537 204.956C800.537 204.956 798.219 209.124 801.564 213.562L820.301 213.146C820.301 213.146 824.448 212.241 827.661 213.146L829.527 196.796Z" fill="#212529"/>
<path id="Vector_58" opacity="0.1" d="M846.549 176.777C844.72 180.711 841.541 183.612 836.929 183.612C836.725 183.612 836.526 183.612 836.328 183.598C834.177 181.912 832.516 180.841 832.516 180.841C832.516 180.841 847.59 163.179 846.521 170.798C846.191 173.131 845.814 175.026 846.549 176.777Z" fill="black"/>
<path id="Vector_59" d="M848.418 171.703C848.416 173.987 847.74 176.219 846.477 178.118C845.213 180.016 843.417 181.495 841.317 182.367C839.217 183.24 836.907 183.467 834.678 183.021C832.45 182.574 830.403 181.473 828.797 179.857C827.191 178.241 826.097 176.183 825.655 173.943C825.213 171.703 825.441 169.381 826.312 167.272C827.182 165.162 828.655 163.359 830.545 162.091C832.435 160.822 834.657 160.146 836.929 160.146C838.44 160.143 839.936 160.44 841.332 161.02C842.728 161.6 843.996 162.451 845.063 163.525C846.131 164.599 846.977 165.875 847.552 167.278C848.128 168.681 848.422 170.185 848.418 171.703Z" fill="#FFB9B9"/>
<path id="Vector_60" d="M855.44 242.278C855.44 242.278 829.812 244.552 828.872 241.263C827.933 237.975 831.487 229.071 831.487 229.071L830.329 216.639L830.287 216.164C830.287 216.164 833.498 202.716 833.38 201.642C833.268 200.675 838.548 189.391 839.633 187.083C839.762 186.816 839.829 186.67 839.829 186.67L840.033 186.788L840.123 186.841L841.379 187.578L846.337 186.397L852.313 183.252L852.873 217.657L855.44 242.278Z" fill="#CBCDDA"/>
<path id="Vector_61" opacity="0.1" d="M842.12 187.086C842.12 187.086 840.366 186.608 839.681 188.37C839.413 189.128 839.095 189.867 838.73 190.582L838.048 194.674L836.798 201.139L835.875 229.737L836.292 234.816L838.582 230.723L838.999 203.992V200.667C839.133 197.792 839.779 194.965 840.906 192.319L841.225 191.569L843.216 188.997L842.12 187.086Z" fill="black"/>
<path id="Vector_62" d="M841.764 186.726C841.764 186.726 840.008 186.248 839.326 188.011C839.057 188.768 838.739 189.507 838.372 190.222L837.69 194.318L836.44 200.782L835.52 229.38L835.936 234.461L838.227 230.355L838.643 203.64V200.307C838.78 197.433 839.426 194.606 840.551 191.959L840.872 191.209L842.864 188.64L841.764 186.726Z" fill="#212529"/>
<path id="Vector_63" opacity="0.1" d="M849.257 179.345C849.257 179.345 843.191 185.81 841.049 186.577C841.049 186.577 842.12 191.479 843.191 192.434C843.191 192.434 849.556 185.911 850.683 185.383L851.628 183.058L849.257 179.345Z" fill="black"/>
<path id="Vector_64" d="M849.257 178.977C849.257 178.977 843.191 185.442 841.049 186.209C841.049 186.209 842.12 191.111 843.191 192.066C843.191 192.066 849.556 185.543 850.683 185.014L851.628 182.693L849.257 178.977Z" fill="#CBCDDA"/>
<path id="Vector_65" opacity="0.1" d="M840.184 186.67L840.123 186.838L838.179 192.075L834.703 201.954C834.703 201.954 834.672 202.055 834.611 202.235C834.035 204.034 830.939 213.795 830.329 216.631L830.287 216.156C830.287 216.156 833.498 202.707 833.38 201.634C833.268 200.667 838.548 189.382 839.633 187.075C839.807 186.957 839.941 186.855 840.033 186.779L840.184 186.67Z" fill="black"/>
<path id="Vector_66" d="M839.829 186.667L837.821 192.075L834.345 201.954C834.345 201.954 834.314 202.055 834.253 202.235C833.643 204.152 830.167 215.094 829.887 217.095C829.571 219.293 825.2 231.173 825.2 231.173L822.703 251.744C820.466 249.998 823.643 233.194 823.643 233.194C823.643 233.194 827.211 208.272 828.056 199.981C828.9 191.69 833.456 189.267 833.456 189.267C835.559 189.16 837.455 188.227 838.621 187.51C839.042 187.257 839.446 186.975 839.829 186.667Z" fill="#212529"/>
<path id="Vector_67" opacity="0.1" d="M865.013 319.016C864.478 323.021 863.765 334.193 863.765 334.193C861.268 337.956 855.736 335.924 855.736 335.924C855.736 335.924 855.143 334.8 854.251 330.545C853.359 326.29 852.825 311.301 852.825 311.301L850.742 298.709C848.84 293.866 848.423 288.13 848.423 288.13C847.584 285.918 845.568 271.396 845.568 271.396C845.568 271.396 846.407 284.423 845.867 291.298C845.327 298.172 848.599 307.422 848.599 307.422C848.599 307.422 850.445 316.09 849.491 318.78C848.538 321.469 851.871 332.583 851.871 332.583C851.592 335.812 842.122 334.497 842.122 334.497C842.122 334.497 837.667 322.481 836.887 315.25C836.42 310.892 835.654 306.572 834.597 302.321L833.825 292.278L832.455 286.342L830.821 278.515C828.976 272.778 828.414 263.186 828.414 263.186L826.985 253.773C826.05 249.119 827.264 243.655 828.07 240.797C828.419 239.557 828.699 238.801 828.699 238.801C829.518 239.386 834.211 240.071 836.638 240.628C837.967 240.936 839.333 241.045 840.693 240.954C846.83 240.464 852.902 239.345 858.812 237.615C859.212 237.494 859.425 237.424 859.425 237.424L859.551 238.5L859.847 241.064L860.376 245.614C860.376 245.614 861.981 269.878 861.03 273.158C860.079 276.438 861.685 287.492 861.685 287.492C860.792 290.114 863.586 300.772 863.586 300.772C863.586 300.772 865.549 315.011 865.013 319.016Z" fill="black"/>
<path id="Vector_68" d="M865.013 318.664C864.478 322.67 863.765 333.842 863.765 333.842C861.268 337.608 855.736 335.573 855.736 335.573C855.736 335.573 855.143 334.449 854.251 330.196C853.359 325.944 852.825 310.949 852.825 310.949L850.742 298.341C848.854 293.498 848.423 287.748 848.423 287.748C847.584 285.536 845.568 271.013 845.568 271.013C845.568 271.013 846.407 284.041 845.867 290.915C845.327 297.79 848.599 307.051 848.599 307.051C848.599 307.051 850.445 315.719 849.491 318.409C848.538 321.098 851.871 332.214 851.871 332.214C851.592 335.441 842.122 334.126 842.122 334.126C842.122 334.126 837.667 322.124 836.887 314.89C836.42 310.533 835.654 306.213 834.597 301.961L833.825 291.922L832.455 286.005L830.821 278.178C828.976 272.438 828.414 262.846 828.414 262.846L826.985 253.433C826.05 248.779 827.264 243.315 828.07 240.456C828.419 239.22 828.699 238.464 828.699 238.464C829.518 239.048 834.211 239.731 836.638 240.288C837.967 240.597 839.333 240.707 840.693 240.614C846.83 240.124 852.902 239.005 858.812 237.275L859.425 237.087L859.551 238.16L859.847 240.726L860.376 245.277C860.376 245.277 861.981 269.538 861.03 272.821C860.079 276.103 861.685 287.155 861.685 287.155C860.792 289.774 863.586 300.432 863.586 300.432C863.586 300.432 865.549 314.654 865.013 318.664Z" fill="#212529"/>
<path id="Vector_69" opacity="0.1" d="M848.418 171.703C848.421 173.723 847.896 175.708 846.896 177.459C845.106 177.777 843.202 177.426 841.862 176.237C840.945 175.425 840.352 174.314 839.564 173.373C839.053 172.794 838.505 172.251 837.922 171.746C837.541 171.365 837.105 171.045 836.627 170.798C836.387 170.676 836.122 170.611 835.853 170.609C835.584 170.606 835.318 170.665 835.075 170.781C834.443 171.136 834.236 171.925 833.87 172.555C833.594 173.095 833.123 173.509 832.553 173.71C832.267 173.802 831.961 173.799 831.677 173.702C831.394 173.606 831.149 173.42 830.978 173.173C830.589 172.502 830.875 171.453 830.223 171.043C830.051 170.958 829.874 170.884 829.692 170.824C828.853 170.441 828.755 169.309 828.682 168.381C828.646 167.926 828.548 167.412 828.167 167.167C827.787 166.923 827.287 167.046 826.834 167.055C826.699 167.06 826.565 167.05 826.434 167.024C827.502 164.604 829.364 162.627 831.71 161.422C834.055 160.218 836.741 159.86 839.317 160.408C841.894 160.957 844.205 162.378 845.864 164.434C847.522 166.49 848.428 169.056 848.429 171.703H848.418Z" fill="black"/>
<path id="Vector_70" d="M825.729 156.683C825.287 157.011 824.921 157.43 824.654 157.912C824.387 158.394 824.226 158.927 824.182 159.477C824.161 159.661 824.175 159.847 824.224 160.025C824.302 160.215 824.396 160.397 824.504 160.571C825.091 161.743 824.194 163.131 824.308 164.438C824.386 165.055 824.684 165.623 825.147 166.037C825.61 166.45 826.206 166.681 826.825 166.686C827.278 166.686 827.776 166.552 828.159 166.799C828.542 167.046 828.637 167.558 828.674 168.013C828.746 168.941 828.839 170.073 829.68 170.455C829.862 170.518 830.039 170.591 830.212 170.675C830.866 171.085 830.581 172.136 830.97 172.805C831.14 173.052 831.385 173.238 831.669 173.334C831.952 173.431 832.259 173.434 832.544 173.342C833.113 173.142 833.584 172.729 833.859 172.19C834.219 171.557 834.435 170.784 835.067 170.416C835.309 170.298 835.575 170.238 835.844 170.241C836.114 170.243 836.379 170.308 836.619 170.43C837.096 170.678 837.533 170.998 837.914 171.38C838.497 171.884 839.045 172.428 839.555 173.007C840.344 173.946 840.937 175.056 841.854 175.869C843.582 177.395 846.228 177.555 848.359 176.675C848.666 176.572 848.944 176.395 849.167 176.158C849.362 175.886 849.487 175.571 849.533 175.239C849.75 174.181 849.812 173.097 849.718 172.021C849.642 171.178 849.472 170.335 849.531 169.491C849.589 168.586 849.911 167.712 849.956 166.807C850.034 165.205 849.243 163.685 848.278 162.417C847.696 161.661 847.042 160.961 846.538 160.152C846.099 159.449 845.78 158.676 845.311 157.996C844.209 156.408 842.352 155.466 840.456 155.138C838.56 154.809 836.61 155.011 834.711 155.329C833.056 155.61 831.389 156.009 829.711 156.107C828.243 156.211 827.06 155.714 825.729 156.683Z" fill="#472727"/>
<path id="Vector_71" opacity="0.1" d="M839.829 186.667L837.821 192.075L834.345 201.954C834.345 201.954 834.314 202.055 834.253 202.235V202.249L838.627 187.505C839.046 187.253 839.447 186.973 839.829 186.667Z" fill="black"/>
<path id="Vector_72" d="M861.536 248.554C861.536 248.554 861.743 255.097 859.99 256.741L855.322 247.896L859.238 245.982L861.536 248.554Z" fill="#FFB9B9"/>
<path id="Vector_73" opacity="0.1" d="M872.432 250.943C870.29 253.453 860.966 253.902 860.966 253.902L851.737 239.287C851.737 239.287 849.553 237.764 845.45 230.903C841.348 224.042 841.482 218.759 841.711 214.812C841.941 210.866 844.508 199.526 844.508 199.526C844.908 196.974 850.66 180.976 850.66 180.976C851.264 182.187 852.389 183.199 853.703 184.033C857.255 186.282 862.213 187.204 862.213 187.204C870.2 188.37 868.726 196.662 868.726 196.662C868.726 196.662 868.816 228.891 868.324 232.747C867.831 236.603 872.432 250.943 872.432 250.943Z" fill="black"/>
<path id="Vector_74" d="M861.657 249.807L861.388 252.199L858.147 251.005L855.77 247.387L857.554 245.982L861.657 249.807Z" fill="#CBCDDA"/>
<path id="Vector_75" opacity="0.1" d="M861.542 240.544L859.847 240.718L843.507 242.359C840.883 242.624 838.234 242.493 835.648 241.971L828.07 240.448C828.419 239.211 828.699 238.455 828.699 238.455C829.518 239.04 834.211 239.723 836.638 240.279C837.967 240.589 839.333 240.698 840.693 240.605C846.83 240.116 852.902 238.997 858.812 237.266L859.551 238.152L861.542 240.544Z" fill="black"/>
<g id="Group" opacity="0.1">
<path id="Vector_76" opacity="0.1" d="M828.869 238.545C828.815 238.519 828.763 238.488 828.713 238.455C828.713 238.455 828.713 238.472 828.696 238.497L828.869 238.545Z" fill="black"/>
<path id="Vector_77" opacity="0.1" d="M863.6 300.429C863.6 300.429 860.804 289.771 861.699 287.152C861.699 287.152 860.093 276.106 861.047 272.818C862.001 269.529 860.39 245.274 860.39 245.274L859.861 240.723L859.565 238.157L859.442 237.084L858.826 237.272L858.446 237.384L858.494 237.8L858.79 240.364L859.319 244.914C859.319 244.914 860.924 269.178 859.976 272.458C859.028 275.738 860.627 286.792 860.627 286.792C859.735 289.414 862.529 300.069 862.529 300.069C862.529 300.069 864.487 314.297 863.958 318.299C863.43 322.301 862.708 333.476 862.708 333.476C860.885 336.228 857.442 335.885 855.717 335.5L855.747 335.567C855.747 335.567 861.279 337.602 863.776 333.836C863.776 333.836 864.489 322.658 865.026 318.659C865.563 314.659 863.6 300.429 863.6 300.429Z" fill="black"/>
<path id="Vector_78" opacity="0.1" d="M849.508 318.42C850.459 315.73 848.616 307.062 848.616 307.062C848.616 307.062 845.347 297.787 845.881 290.927C846.105 288.063 846.091 284.133 845.996 280.527C845.238 275.876 844.511 270.69 844.511 270.69C844.511 270.69 845.35 283.717 844.813 290.589C844.276 297.461 847.545 306.728 847.545 306.728C847.545 306.728 849.391 315.393 848.437 318.083C847.483 320.772 850.811 331.874 850.811 331.874C850.574 334.46 844.463 334.123 842.039 333.898L842.131 334.145C842.131 334.145 851.586 335.461 851.882 332.234C851.888 332.226 848.557 321.11 849.508 318.42Z" fill="black"/>
</g>
<path id="Vector_79" d="M872.787 250.943C870.648 253.453 861.321 253.902 861.321 253.902L852.092 239.287C852.092 239.287 849.908 237.764 845.803 230.903C841.697 224.042 841.837 218.759 842.064 214.812C842.29 210.866 844.86 199.526 844.86 199.526C845.26 196.974 851.013 180.976 851.013 180.976C851.614 182.187 852.738 183.199 854.055 184.033C857.607 186.282 862.565 187.204 862.565 187.204C870.55 188.37 869.076 196.662 869.076 196.662C869.076 196.662 869.165 228.891 868.673 232.747C868.181 236.603 872.787 250.943 872.787 250.943Z" fill="#212529"/>
<path id="Vector_80" opacity="0.1" d="M852.721 188.907L850.714 189.658L852.05 190.599L842.066 214.804C842.299 210.869 844.863 199.517 844.863 199.517C845.263 196.965 851.016 180.967 851.016 180.967C851.617 182.179 852.741 183.19 854.058 184.025L852.721 188.907Z" fill="black"/>
<path id="Vector_81" opacity="0.1" d="M855.129 232.027L865.342 229.383L866.682 233.551L856.245 236.108L855.129 232.027Z" fill="black"/>
<path id="Vector_82" opacity="0.1" d="M860.971 190.61C860.971 190.61 856.332 194.998 858.083 204.776C859.833 214.554 862.633 225.17 862.633 225.17L855.082 246.193C855.082 246.193 860.345 251.707 862.932 252.376L870.469 235.566C870.469 235.566 873.992 229.74 873.055 220.597C872.119 211.454 868.729 196.659 868.729 196.659C868.729 196.659 868.732 187.654 860.971 190.61Z" fill="black"/>
<path id="Vector_83" d="M861.327 190.61C861.327 190.61 856.684 194.998 858.429 204.776C860.174 214.554 862.977 225.17 862.977 225.17L855.426 246.193C855.426 246.193 860.689 251.707 863.276 252.376L870.827 235.566C870.827 235.566 874.35 229.74 873.413 220.597C872.477 211.454 869.087 196.659 869.087 196.659C869.087 196.659 869.087 187.654 861.327 190.61Z" fill="#212529"/>
<path id="Vector_84" opacity="0.1" d="M855.677 246.64C855.677 246.64 861.564 254.83 861.12 257.011C860.675 259.192 858.949 258.026 858.949 258.026L856.631 254.83L854.548 248.852C854.548 248.852 854.752 246.272 855.677 246.64Z" fill="black"/>
<path id="Vector_85" opacity="0.1" d="M854.964 246.64C854.964 246.64 860.837 254.83 860.406 257.011C859.976 259.192 858.236 258.026 858.236 258.026L855.915 254.83L853.835 248.852C853.835 248.852 854.039 246.272 854.964 246.64Z" fill="black"/>
<path id="Vector_86" d="M855.322 256.64C855.322 256.64 861.195 264.83 860.762 267.011C860.328 269.192 858.592 268.026 858.592 268.026L856.273 264.83L854.193 258.852C854.193 258.852 854.394 256.272 855.322 256.64Z" fill="#24615E"/>
</g>
</g>
<g id="menu">
<rect id="background" x="393" y="38" width="120" height="354" fill="#30353A"/>
<g id="percentages">
<path id="Vector_87" d="M405 215V321H502V215H405ZM453.5 222.652C452.84 222.652 452.195 222.454 451.646 222.083C451.097 221.712 450.669 221.185 450.417 220.568C450.164 219.951 450.098 219.272 450.227 218.617C450.356 217.963 450.674 217.361 451.14 216.889C451.607 216.417 452.202 216.095 452.849 215.965C453.496 215.835 454.167 215.902 454.777 216.157C455.387 216.413 455.908 216.845 456.275 217.401C456.641 217.956 456.837 218.608 456.837 219.276C456.837 220.171 456.486 221.03 455.86 221.663C455.234 222.296 454.385 222.652 453.5 222.652Z" fill="#212529"/>
<g id="items">
<path id="Vector_88" d="M466.408 244.261H414.803C414.384 244.261 413.983 244.101 413.687 243.815C413.392 243.53 413.225 243.143 413.225 242.739C413.225 242.336 413.392 241.948 413.687 241.663C413.983 241.378 414.384 241.217 414.803 241.217H466.408C466.827 241.217 467.228 241.378 467.524 241.663C467.82 241.948 467.986 242.336 467.986 242.739C467.986 243.143 467.82 243.53 467.524 243.815C467.228 244.101 466.827 244.261 466.408 244.261Z" fill="#F2F2F2"/>
<path id="Vector_89" d="M466.408 259.913H414.803C414.384 259.913 413.983 259.753 413.687 259.467C413.392 259.182 413.225 258.795 413.225 258.391C413.225 257.988 413.392 257.601 413.687 257.315C413.983 257.03 414.384 256.87 414.803 256.87H466.408C466.827 256.87 467.228 257.03 467.524 257.315C467.82 257.601 467.986 257.988 467.986 258.391C467.986 258.795 467.82 259.182 467.524 259.467C467.228 259.753 466.827 259.913 466.408 259.913Z" fill="#F2F2F2"/>
<path id="Vector_90" d="M466.408 275.565H414.803C414.384 275.565 413.983 275.405 413.687 275.12C413.392 274.834 413.225 274.447 413.225 274.043C413.225 273.64 413.392 273.253 413.687 272.967C413.983 272.682 414.384 272.522 414.803 272.522H466.408C466.827 272.522 467.228 272.682 467.524 272.967C467.82 273.253 467.986 273.64 467.986 274.043C467.986 274.447 467.82 274.834 467.524 275.12C467.228 275.405 466.827 275.565 466.408 275.565Z" fill="#F2F2F2"/>
<path id="Vector_91" d="M466.408 291.217H414.803C414.384 291.217 413.983 291.057 413.687 290.772C413.392 290.486 413.225 290.099 413.225 289.696C413.225 289.292 413.392 288.905 413.687 288.62C413.983 288.334 414.384 288.174 414.803 288.174H466.408C466.827 288.174 467.228 288.334 467.524 288.62C467.82 288.905 467.986 289.292 467.986 289.696C467.986 290.099 467.82 290.486 467.524 290.772C467.228 291.057 466.827 291.217 466.408 291.217Z" fill="#F2F2F2"/>
<path id="Vector_92" d="M466.408 306.87H414.803C414.384 306.87 413.983 306.709 413.687 306.424C413.392 306.138 413.225 305.751 413.225 305.348C413.225 304.944 413.392 304.557 413.687 304.272C413.983 303.986 414.384 303.826 414.803 303.826H466.408C466.827 303.826 467.228 303.986 467.524 304.272C467.82 304.557 467.986 304.944 467.986 305.348C467.986 305.751 467.82 306.138 467.524 306.424C467.228 306.709 466.827 306.87 466.408 306.87Z" fill="#F2F2F2"/>
<path id="Vector_93" d="M457.394 244.261H414.577C414.159 244.261 413.758 244.101 413.462 243.815C413.166 243.53 413 243.143 413 242.739C413 242.336 413.166 241.948 413.462 241.663C413.758 241.378 414.159 241.217 414.577 241.217H457.394C457.813 241.217 458.214 241.378 458.51 241.663C458.806 241.948 458.972 242.336 458.972 242.739C458.972 243.143 458.806 243.53 458.51 243.815C458.214 244.101 457.813 244.261 457.394 244.261V244.261Z" fill="#24615E"/>
<path id="Vector_94" d="M444.099 259.913H414.577C414.159 259.913 413.758 259.753 413.462 259.467C413.166 259.182 413 258.795 413 258.391C413 257.988 413.166 257.601 413.462 257.315C413.758 257.03 414.159 256.87 414.577 256.87H444.099C444.517 256.87 444.918 257.03 445.214 257.315C445.51 257.601 445.676 257.988 445.676 258.391C445.676 258.795 445.51 259.182 445.214 259.467C444.918 259.753 444.517 259.913 444.099 259.913Z" fill="#24615E"/>
<path id="Vector_95" d="M427.873 275.565H414.577C414.159 275.565 413.758 275.405 413.462 275.12C413.166 274.834 413 274.447 413 274.043C413 273.64 413.166 273.253 413.462 272.967C413.758 272.682 414.159 272.522 414.577 272.522H427.873C428.292 272.522 428.693 272.682 428.989 272.967C429.285 273.253 429.451 273.64 429.451 274.043C429.451 274.447 429.285 274.834 428.989 275.12C428.693 275.405 428.292 275.565 427.873 275.565V275.565Z" fill="#24615E"/>
<path id="Vector_96" d="M461.451 291.217H414.577C414.159 291.217 413.758 291.057 413.462 290.772C413.166 290.486 413 290.099 413 289.696C413 289.292 413.166 288.905 413.462 288.62C413.758 288.334 414.159 288.174 414.577 288.174H461.451C461.869 288.174 462.27 288.334 462.566 288.62C462.862 288.905 463.028 289.292 463.028 289.696C463.028 290.099 462.862 290.486 462.566 290.772C462.27 291.057 461.869 291.217 461.451 291.217V291.217Z" fill="#24615E"/>
<path id="Vector_97" d="M451.085 306.87H414.577C414.159 306.87 413.758 306.709 413.462 306.424C413.166 306.138 413 305.751 413 305.348C413 304.944 413.166 304.557 413.462 304.272C413.758 303.986 414.159 303.826 414.577 303.826H451.085C451.503 303.826 451.904 303.986 452.2 304.272C452.496 304.557 452.662 304.944 452.662 305.348C452.662 305.751 452.496 306.138 452.2 306.424C451.904 306.709 451.503 306.87 451.085 306.87V306.87Z" fill="#24615E"/>
<path id="Vector_98" d="M487.817 241.217H487.366V244.261H487.817V241.217Z" fill="#24615E"/>
<path id="Vector_99" d="M491.197 244.478C490.84 244.478 490.492 244.376 490.195 244.185C489.899 243.994 489.668 243.722 489.532 243.405C489.395 243.087 489.359 242.737 489.429 242.4C489.499 242.062 489.67 241.753 489.922 241.509C490.174 241.266 490.495 241.101 490.845 241.033C491.195 240.966 491.557 241.001 491.886 241.132C492.216 241.264 492.497 241.487 492.695 241.773C492.893 242.059 492.999 242.395 492.999 242.739C492.999 243.2 492.808 243.642 492.471 243.968C492.133 244.294 491.675 244.478 491.197 244.478V244.478ZM491.197 241.435C490.929 241.435 490.668 241.511 490.446 241.655C490.223 241.798 490.05 242.002 489.948 242.24C489.846 242.478 489.819 242.741 489.871 242.994C489.923 243.247 490.052 243.479 490.241 243.661C490.43 243.844 490.671 243.968 490.933 244.018C491.195 244.069 491.467 244.043 491.714 243.944C491.961 243.845 492.172 243.678 492.321 243.464C492.469 243.249 492.548 242.997 492.548 242.739C492.548 242.393 492.406 242.062 492.152 241.817C491.899 241.573 491.555 241.435 491.197 241.435V241.435Z" fill="#24615E"/>
<path id="Vector_100" d="M487.817 256.87H487.366V259.913H487.817V256.87Z" fill="#24615E"/>
<path id="Vector_101" d="M491.197 260.13C490.84 260.13 490.492 260.028 490.195 259.837C489.899 259.646 489.668 259.375 489.532 259.057C489.395 258.739 489.359 258.389 489.429 258.052C489.499 257.715 489.67 257.405 489.922 257.162C490.174 256.918 490.495 256.753 490.845 256.686C491.195 256.618 491.557 256.653 491.886 256.785C492.216 256.916 492.497 257.139 492.695 257.425C492.893 257.711 492.999 258.047 492.999 258.391C492.999 258.852 492.808 259.294 492.471 259.62C492.133 259.947 491.675 260.13 491.197 260.13ZM491.197 257.087C490.929 257.087 490.668 257.163 490.446 257.307C490.223 257.45 490.05 257.654 489.948 257.892C489.846 258.131 489.819 258.393 489.871 258.646C489.923 258.899 490.052 259.131 490.241 259.314C490.43 259.496 490.671 259.62 490.933 259.671C491.195 259.721 491.467 259.695 491.714 259.596C491.961 259.498 492.172 259.33 492.321 259.116C492.469 258.901 492.548 258.649 492.548 258.391C492.548 258.045 492.406 257.714 492.152 257.469C491.899 257.225 491.555 257.087 491.197 257.087V257.087Z" fill="#24615E"/>
<path id="Vector_102" d="M487.817 272.522H487.366V275.565H487.817V272.522Z" fill="#24615E"/>
<path id="Vector_103" d="M491.197 275.783C490.84 275.783 490.492 275.681 490.195 275.49C489.899 275.298 489.668 275.027 489.532 274.709C489.395 274.391 489.359 274.042 489.429 273.704C489.499 273.367 489.67 273.057 489.922 272.814C490.174 272.571 490.495 272.405 490.845 272.338C491.195 272.271 491.557 272.305 491.886 272.437C492.216 272.568 492.497 272.791 492.695 273.077C492.893 273.363 492.999 273.7 492.999 274.043C492.999 274.505 492.808 274.947 492.471 275.273C492.133 275.599 491.675 275.782 491.197 275.783V275.783ZM491.197 272.739C490.929 272.739 490.668 272.816 490.446 272.959C490.223 273.102 490.05 273.306 489.948 273.544C489.846 273.783 489.819 274.045 489.871 274.298C489.923 274.551 490.052 274.783 490.241 274.966C490.43 275.148 490.671 275.272 490.933 275.323C491.195 275.373 491.467 275.347 491.714 275.249C491.961 275.15 492.172 274.983 492.321 274.768C492.469 274.554 492.548 274.301 492.548 274.043C492.548 273.698 492.406 273.366 492.152 273.122C491.899 272.877 491.555 272.74 491.197 272.739V272.739Z" fill="#24615E"/>
<path id="Vector_104" d="M487.817 288.174H487.366V291.217H487.817V288.174Z" fill="#24615E"/>
<path id="Vector_105" d="M491.197 291.435C490.84 291.435 490.492 291.333 490.195 291.142C489.899 290.951 489.668 290.679 489.532 290.361C489.395 290.043 489.359 289.694 489.429 289.356C489.499 289.019 489.67 288.709 489.922 288.466C490.174 288.223 490.495 288.057 490.845 287.99C491.195 287.923 491.557 287.957 491.886 288.089C492.216 288.221 492.497 288.443 492.695 288.729C492.893 289.015 492.999 289.352 492.999 289.696C492.999 290.157 492.808 290.599 492.471 290.925C492.133 291.251 491.675 291.434 491.197 291.435V291.435ZM491.197 288.391C490.929 288.391 490.668 288.468 490.446 288.611C490.223 288.754 490.05 288.958 489.948 289.197C489.846 289.435 489.819 289.697 489.871 289.95C489.923 290.203 490.052 290.436 490.241 290.618C490.43 290.8 490.671 290.925 490.933 290.975C491.195 291.025 491.467 290.999 491.714 290.901C491.961 290.802 492.172 290.635 492.321 290.42C492.469 290.206 492.548 289.954 492.548 289.696C492.548 289.35 492.406 289.018 492.152 288.774C491.899 288.529 491.555 288.392 491.197 288.391Z" fill="#24615E"/>
<path id="Vector_106" d="M487.817 303.826H487.366V306.87H487.817V303.826Z" fill="#24615E"/>
<path id="Vector_107" d="M491.197 307.087C490.84 307.087 490.492 306.985 490.195 306.794C489.899 306.603 489.668 306.331 489.532 306.013C489.395 305.696 489.359 305.346 489.429 305.009C489.499 304.671 489.67 304.361 489.922 304.118C490.174 303.875 490.495 303.709 490.845 303.642C491.195 303.575 491.557 303.609 491.886 303.741C492.216 303.873 492.497 304.096 492.695 304.382C492.893 304.668 492.999 305.004 492.999 305.348C492.999 305.809 492.808 306.251 492.471 306.577C492.133 306.903 491.675 307.086 491.197 307.087V307.087ZM491.197 304.043C490.929 304.043 490.668 304.12 490.446 304.263C490.223 304.407 490.05 304.61 489.948 304.849C489.846 305.087 489.819 305.349 489.871 305.602C489.923 305.855 490.052 306.088 490.241 306.27C490.43 306.453 490.671 306.577 490.933 306.627C491.195 306.677 491.467 306.652 491.714 306.553C491.961 306.454 492.172 306.287 492.321 306.072C492.469 305.858 492.548 305.606 492.548 305.348C492.548 305.002 492.406 304.67 492.152 304.426C491.899 304.181 491.555 304.044 491.197 304.043Z" fill="#24615E"/>
<path id="Vector_108" d="M491.197 243.609C491.695 243.609 492.098 243.219 492.098 242.739C492.098 242.259 491.695 241.87 491.197 241.87C490.699 241.87 490.296 242.259 490.296 242.739C490.296 243.219 490.699 243.609 491.197 243.609Z" fill="#24615E"/>
<path id="Vector_109" d="M491.197 290.565C491.695 290.565 492.098 290.176 492.098 289.696C492.098 289.215 491.695 288.826 491.197 288.826C490.699 288.826 490.296 289.215 490.296 289.696C490.296 290.176 490.699 290.565 491.197 290.565Z" fill="#24615E"/>
<path id="Vector_110" d="M491.197 306.217C491.695 306.217 492.098 305.828 492.098 305.348C492.098 304.868 491.695 304.478 491.197 304.478C490.699 304.478 490.296 304.868 490.296 305.348C490.296 305.828 490.699 306.217 491.197 306.217Z" fill="#24615E"/>
</g>
</g>
<g id="info_user">
<rect id="background_2" x="405" y="163" width="97" height="40" fill="#212529"/>
<rect id="Rectangle 1" x="413" y="170" width="80" height="3" fill="#C4C4C4"/>
<rect id="Rectangle 3" x="413" y="186" width="80" height="3" fill="#C4C4C4"/>
<rect id="Rectangle 2" x="413" y="178" width="80" height="3" fill="#C4C4C4"/>
<rect id="Rectangle 4" x="413" y="194" width="80" height="3" fill="#C4C4C4"/>
</g>
</g>
<g id="male_avatar" clip-path="url(#clip2_2_60)">
<path id="Vector_111" d="M476 121C476.005 124.655 475.265 128.273 473.826 131.632L473.736 131.838C471.301 137.377 467.08 141.94 461.746 144.796C456.412 147.653 450.275 148.638 444.315 147.595C444.153 147.566 443.991 147.536 443.829 147.506C442.159 147.182 440.524 146.699 438.945 146.065C438.689 145.962 438.434 145.855 438.182 145.745C438.009 145.67 437.837 145.592 437.666 145.512C432.989 143.345 429.03 139.886 426.254 135.543C423.479 131.2 422.003 126.154 422 121C422 106.088 434.088 94 449 94C463.912 94 476 106.088 476 121Z" fill="#24615E"/>
<path id="Vector_112" opacity="0.2" d="M444.315 147.595C444.153 147.566 443.991 147.536 443.829 147.506C443.724 144.445 443.362 138.164 442.128 131.586C441.453 127.986 440.516 124.295 439.216 120.996C438.771 119.854 438.262 118.739 437.693 117.654C436.379 115.173 434.787 113.085 432.855 111.671L433.139 111.282C434.746 112.46 436.19 114.113 437.471 116.241C437.855 116.879 438.224 117.559 438.578 118.282C438.957 119.055 439.319 119.876 439.663 120.744C439.883 121.297 440.095 121.869 440.3 122.46C441.192 125.027 441.949 127.955 442.574 131.246C442.712 131.973 442.843 132.717 442.968 133.48C443.936 139.389 444.227 144.852 444.315 147.595Z" fill="black"/>
<path id="Vector_113" opacity="0.2" d="M438.182 145.745C438.009 145.67 437.837 145.592 437.666 145.512C437.499 143.699 437.192 141.45 436.631 139.314C436.386 138.355 436.07 137.416 435.688 136.503C435.048 135.005 434.219 133.732 433.148 132.946L433.433 132.559C434.554 133.38 435.419 134.678 436.088 136.197C436.841 137.908 437.344 139.899 437.678 141.802C437.927 143.215 438.083 144.58 438.182 145.745Z" fill="black"/>
<path id="Vector_114" opacity="0.2" d="M430.169 111.659C431.496 111.659 432.572 110.583 432.572 109.256C432.572 107.929 431.496 106.852 430.169 106.852C428.841 106.852 427.765 107.929 427.765 109.256C427.765 110.583 428.841 111.659 430.169 111.659Z" fill="black"/>
<path id="Vector_115" opacity="0.2" d="M430.943 132.35C432.27 132.35 433.346 131.273 433.346 129.946C433.346 128.619 432.27 127.542 430.943 127.542C429.615 127.542 428.539 128.619 428.539 129.946C428.539 131.273 429.615 132.35 430.943 132.35Z" fill="black"/>
<path id="Vector_116" opacity="0.2" d="M439.711 113.293C439.201 116.169 440.326 118.772 440.326 118.772C440.326 118.772 442.278 116.714 442.788 113.838C443.297 110.963 442.172 108.359 442.172 108.359C442.172 108.359 440.221 110.418 439.711 113.293Z" fill="black"/>
<path id="Vector_117" opacity="0.2" d="M431.723 120.119C434.466 121.122 437.222 120.478 437.222 120.478C437.222 120.478 435.531 118.209 432.788 117.206C430.046 116.203 427.29 116.846 427.29 116.846C427.29 116.846 428.98 119.116 431.723 120.119Z" fill="black"/>
<path id="Vector_118" opacity="0.2" d="M431.258 138.441C433.18 139.144 435.115 138.685 435.115 138.685C435.115 138.685 433.932 137.087 432.01 136.384C430.088 135.681 428.153 136.14 428.153 136.14C428.153 136.14 429.335 137.738 431.258 138.441Z" fill="black"/>
<path id="Vector_119" d="M448.945 126.979C454.758 126.979 459.471 122.266 459.471 116.453C459.471 110.64 454.758 105.927 448.945 105.927C443.131 105.927 438.419 110.64 438.419 116.453C438.419 122.266 443.131 126.979 448.945 126.979Z" fill="#D0CDE1"/>
<path id="Vector_120" d="M444.833 124.512C444.833 124.512 446.149 130.762 446.149 131.42C446.149 132.078 452.398 135.038 452.398 135.038L457.99 134.051L459.964 128.13C459.964 128.13 456.675 123.196 456.675 121.223L444.833 124.512Z" fill="#D0CDE1"/>
<path id="Vector_121" d="M473.826 131.632L473.736 131.838C471.301 137.377 467.08 141.94 461.746 144.796C456.412 147.653 450.275 148.638 444.315 147.595C444.153 147.566 443.991 147.536 443.829 147.506C442.159 147.182 440.524 146.7 438.945 146.065C438.689 145.962 438.434 145.855 438.182 145.745C438.009 145.67 437.837 145.592 437.666 145.512C436.116 144.795 434.638 143.931 433.252 142.934L432.004 139.314L432.706 138.779L434.148 137.678L435.688 136.503L436.088 136.197L442.128 131.586L442.574 131.246L445.713 128.849L445.714 128.848C445.714 128.848 449.109 134.38 454.043 132.735C458.977 131.091 458.869 126.374 458.869 126.374L473.826 131.632Z" fill="#2F2E41"/>
<path id="Vector_122" d="M439.816 107.973C439.816 107.973 443.158 100.732 449.564 102.403C455.969 104.074 459.59 106.58 459.868 109.087C460.147 111.593 459.729 115.353 459.729 115.353C459.729 115.353 459.033 110.201 454.577 111.315C450.121 112.429 443.158 111.593 443.158 111.593L442.044 121.619C442.044 121.619 440.791 119.809 439.399 120.923C438.006 122.037 435.36 110.201 439.816 107.973Z" fill="#2F2E41"/>
<path id="Vector_123" d="M438.945 146.065C438.689 145.962 438.434 145.855 438.182 145.745C438.009 145.67 437.837 145.592 437.666 145.512C435.103 144.324 432.742 142.742 430.669 140.823C431.403 139.823 432.004 139.314 432.004 139.314H436.939L437.678 141.802L438.945 146.065Z" fill="#2F2E41"/>
<path id="Vector_124" d="M469.503 131.091L473.736 131.838C472.603 134.419 471.073 136.806 469.202 138.913L469.503 131.091Z" fill="#2F2E41"/>
</g>
</g>
<g id="header">
<path id="background_3" d="M393.5 38.5H1020.5V79.5H393.5V38.5Z" fill="white" stroke="#E2E8F0"/>
</g>
<g id="logo">
<path id="Vector_125" d="M692.11 48.6008C689.03 49.8393 685.72 51.1714 684.754 51.5594L683 52.265L683.003 54.351L683.007 56.4386L688.855 60.2096L694.703 63.9807V64.1988V64.4169L690.366 66.1619C687.981 67.1208 686.025 67.9025 686.019 67.8996C686.012 67.8967 686.008 67.3433 686.008 66.6714V65.4504H684.504H683V68.9199C683 70.8289 683.006 72.3894 683.012 72.3894C683.019 72.3894 686.332 71.0602 690.375 69.4338L697.725 66.4796L697.73 64.3994L697.733 62.3206L691.87 58.5393L686.008 54.7595V54.5501C686.008 54.3994 686.012 54.3379 686.026 54.3291C686.045 54.3174 694.644 50.8567 694.686 50.845C694.709 50.8377 694.711 50.9021 694.711 52.0688V53.3L696.219 53.297L697.725 53.2926L697.73 49.8188C697.731 47.9098 697.728 46.3464 697.723 46.3478C697.715 46.3478 695.19 47.3623 692.11 48.6008Z" fill="#21615D"/>
<path id="Vector_126" d="M713.47 58.9936L713.476 66.511H714.288H715.1L715.111 65.28L715.122 64.0489L715.515 63.7132C715.733 63.5303 715.916 63.3818 715.925 63.3839C715.934 63.3882 716.457 64.0769 717.088 64.9184C717.718 65.7577 718.25 66.4637 718.267 66.483C718.299 66.5196 718.374 66.5218 719.25 66.5218C719.77 66.5218 720.197 66.5175 720.197 66.511C720.197 66.5045 719.505 65.5684 718.656 64.432C717.81 63.2935 717.124 62.3552 717.135 62.3466C717.143 62.338 717.812 61.7677 718.622 61.079L720.092 59.8286H718.932L717.771 59.8307L716.446 60.9477L715.122 62.0668L715.115 56.7726L715.111 51.4783H714.288H713.465L713.47 58.9936Z" fill="#0C2221"/>
<path id="Vector_127" d="M708.173 59.6589C707.278 59.7537 706.619 59.9909 706.022 60.435C705.318 60.9588 704.871 61.6595 704.703 62.5025C704.644 62.8021 704.65 63.5675 704.714 63.8628C704.91 64.7748 705.39 65.4733 706.196 66.0187C706.874 66.4757 707.663 66.6956 708.624 66.6956C709.587 66.6956 710.407 66.465 711.077 66.0079C712.023 65.3612 712.538 64.4578 712.597 63.3325C712.646 62.4098 712.338 61.5366 711.732 60.8899C711.122 60.2345 710.356 59.8443 709.391 59.6977C709.181 59.6653 708.356 59.6394 708.173 59.6589ZM709.034 61.2434C709.612 61.3146 710.061 61.5258 710.429 61.8967C710.794 62.2675 710.947 62.6404 710.947 63.1751C710.947 63.6774 710.788 64.0763 710.448 64.4233C709.984 64.8976 709.425 65.1068 708.619 65.1068C708.213 65.1068 707.969 65.0723 707.669 64.9709C707.053 64.7618 706.576 64.3177 706.396 63.7787C706.245 63.3303 706.277 62.7547 706.477 62.3515C706.766 61.7673 707.418 61.3404 708.173 61.2434C708.386 61.2176 708.824 61.2154 709.034 61.2434Z" fill="#0C2221"/>
<path id="Vector_128" d="M698.276 60.5987V61.3713H699.536H700.797V63.9465V66.5218H701.609H702.421V63.9465V61.3713H703.671H704.921V60.5987V59.8261H701.598H698.276V60.5987Z" fill="#0C2221"/>
<path id="Vector_129" d="M720.197 63.1739V66.5218H723.477H726.756V65.7385V64.9551L724.298 64.9509L721.837 64.9444V64.3543V63.7641L723.365 63.7577L724.891 63.7534V62.9701V62.1868H723.359H721.826V61.8005V61.4142H724.162H726.499V60.6201V59.8261H723.348H720.197V63.1739Z" fill="#0C2221"/>
<path id="Vector_130" d="M727.36 63.1739V66.5218H728.18H729V63.1739V59.8261H728.18H727.36V63.1739Z" fill="#0C2221"/>
</g>
</g>
</g>
</g>
<defs>
<linearGradient id="paint0_linear_2_60" x1="832.038" y1="347.459" x2="832.038" y2="154.126" gradientUnits="userSpaceOnUse">
<stop stop-color="#808080" stop-opacity="0.25"/>
<stop offset="0.54" stop-color="#808080" stop-opacity="0.12"/>
<stop offset="1" stop-color="#808080" stop-opacity="0.1"/>
</linearGradient>
<clipPath id="clip0_2_60">
<rect width="1082.44" height="449.881" fill="white"/>
</clipPath>
<clipPath id="clip1_2_60">
<rect width="292" height="234" fill="white" transform="translate(617 121)"/>
</clipPath>
<clipPath id="clip2_2_60">
<rect width="54" height="54" fill="white" transform="translate(422 94)"/>
</clipPath>
</defs>
</svg>
